<?xml version="1.0" encoding="UTF-8" standalone="no"?>
<svg width="26px" height="21px" viewBox="0 0 26 21" version="1.1" xmlns="http://www.w3.org/2000/svg" xmlns:xlink="http://www.w3.org/1999/xlink">
    <!-- Generator: sketchtool 39.1 (31720) - http://www.bohemiancoding.com/sketch -->
    <title>51016C2E-F745-4998-B53C-749F35C36644</title>
    <desc>Created with sketchtool.</desc>
    <defs></defs>
    <g id="Desktop" stroke="none" stroke-width="1" fill="none" fill-rule="evenodd">
        <g id="3" transform="translate(-213.000000, -2722.000000)" fill="#005DA8">
            <g id="briefcase69" transform="translate(213.000000, 2722.000000)">
                <path d="M14.2935,12.8935 L14.2935,12.335 C14.2935,11.655 13.7415,11.1035 13.062,11.1035 C12.3815,11.1035 11.83,11.655 11.83,12.335 L11.83,12.8935 C11.83,13.573 12.3815,14.125 13.062,14.125 C13.7415,14.125 14.2935,13.5735 14.2935,12.8935 L14.2935,12.8935 Z" id="Shape"></path>
                <path d="M15.138,13.5745 C14.8655,14.468 14.043,15.1245 13.062,15.1245 C12.0805,15.1245 11.258,14.4685 10.985,13.5745 L2.5005,13.5745 C1.965,13.5745 1.459,13.45 1.005,13.234 L1.005,18.8675 C1.005,19.9675 1.905,20.8675 3.005,20.8675 L23.118,20.8675 C24.218,20.8675 25.118,19.9675 25.118,18.8675 L25.118,13.2345 C24.664,13.4505 24.158,13.575 23.623,13.575 L15.138,13.5745 L15.138,13.5745 L15.138,13.5745 Z" id="Shape"></path>
                <path d="M23.539,3.4585 L18.738,3.4585 C18.4485,1.6455 16.877,0.2545 14.984,0.2545 L11.137,0.2545 C9.2435,0.2545 7.6735,1.6455 7.383,3.4585 L2.583,3.4585 C1.437,3.4585 0.4995,4.3585 0.4995,5.4585 L0.4995,10.075 C0.4995,11.179 1.395,12.075 2.4995,12.075 L10.8895,12.075 C10.918,11.5005 11.165,10.982 11.5555,10.6085 C11.5675,10.5975 11.5815,10.588 11.594,10.577 C11.6805,10.4975 11.7705,10.4225 11.869,10.3575 C11.904,10.334 11.944,10.318 11.9805,10.297 C12.0615,10.2505 12.1415,10.202 12.229,10.166 C12.2975,10.1375 12.3715,10.121 12.4435,10.0995 C12.5055,10.081 12.5645,10.0565 12.629,10.0435 C12.769,10.015 12.9135,10 13.061,10 C13.209,10 13.353,10.0155 13.4925,10.0435 C13.5565,10.0565 13.616,10.081 13.6785,10.0995 C13.7505,10.121 13.8235,10.1375 13.893,10.1665 C13.98,10.2025 14.0595,10.2505 14.1405,10.297 C14.177,10.3185 14.217,10.3345 14.253,10.358 C14.3515,10.4225 14.441,10.4975 14.5275,10.577 C14.54,10.5885 14.5555,10.5975 14.5665,10.6095 C14.9575,10.9835 15.204,11.5005 15.2325,12.076 L23.6225,12.076 C24.727,12.076 25.6225,11.1805 25.6225,10.076 L25.6225,5.4595 C25.6225,4.3585 24.685,3.4585 23.539,3.4585 L23.539,3.4585 Z M9.3095,3.4585 C9.5645,2.688 10.283,2.1265 11.138,2.1265 L14.985,2.1265 C15.8395,2.1265 16.558,2.688 16.813,3.4585 L9.3095,3.4585 L9.3095,3.4585 Z" id="Shape"></path>
            </g>
        </g>
    </g>
</svg>