<?xml version="1.0" encoding="UTF-8" standalone="no"?>
<svg width="40px" height="54px" viewBox="0 0 40 54" version="1.1" xmlns="http://www.w3.org/2000/svg" xmlns:xlink="http://www.w3.org/1999/xlink">
    <!-- Generator: sketchtool 39.1 (31720) - http://www.bohemiancoding.com/sketch -->
    <title>49B1F1B1-2A08-4D16-B4BE-F14A3DCEAF59</title>
    <desc>Created with sketchtool.</desc>
    <defs></defs>
    <g id="Desktop" stroke="none" stroke-width="1" fill="none" fill-rule="evenodd">
        <g id="3" transform="translate(-208.000000, -3062.000000)" fill="#FF4664">
            <g id="Download-Alert-+-down-arrow56" transform="translate(180.000000, 3062.000000)">
                <g id="down-arrow56" transform="translate(28.000000, 0.000000)">
                    <g id="Layer_1">
                        <g id="Group">
                            <path d="M39.3083333,18.4016667 C39.3083333,18.2546667 39.2733333,18.1193333 39.215,17.998 C39.1613333,17.2466667 39.089,17.1276667 39.0283333,17.0226667 C38.8906667,16.7986667 37.6866667,15.548 35.4443333,13.3033333 L26.3396667,4.20333333 C24.095,1.961 22.8443333,0.754666667 22.6296667,0.626333333 C22.4103333,0.491 22.1653333,0.337 17.0016667,0.337 L7.96,0.337 C6.532,0.337 3.17433333,0.341666667 2.88033333,0.386 C2.43233333,0.442 1.75566667,0.862 1.48033333,1.13266667 C1.24233333,1.37533333 0.922666667,1.79066667 0.817666667,2.15466667 C0.733666667,2.43 0.691666667,4.264 0.691666667,7.60533333 L0.691666667,46.3946667 C0.691666667,46.586 0.694,51.1126667 0.740666667,51.4743333 C0.796666667,51.9223333 1.219,52.5966667 1.485,52.8696667 C1.67633333,53.0586667 2.10566667,53.4133333 2.51866667,53.5416667 C2.864,53.642 5.66866667,53.6653333 7.96,53.6653333 L32.04,53.6653333 C32.2313333,53.6653333 36.7556667,53.663 37.122,53.6163333 C37.5723333,53.5603333 38.2466667,53.1356667 38.5173333,52.8696667 C38.7576667,52.627 39.075,52.2163333 39.187,51.8406667 C39.2686667,51.5653333 39.3106667,49.7336667 39.3106667,46.397 L39.3106667,22.6436667 C39.3106667,20.756 39.2873333,19.5263333 39.257,18.7143333 C39.2896667,18.6163333 39.3083333,18.5113333 39.3083333,18.4016667 L39.3083333,18.4016667 Z M22.17,2.71933333 C22.7603333,3.28633333 23.752,4.257 25.019,5.52633333 L34.1236667,14.6263333 C35.3883333,15.8886667 36.3566667,16.878 36.9236667,17.4683333 L25.901,17.4683333 C23.843,17.4683333 22.1676667,15.793 22.1676667,13.735 L22.1676667,2.71933333 L22.17,2.71933333 Z M37.4416667,46.3946667 C37.4416667,49.1223333 37.3996667,51.1616667 37.4136667,51.2596667 C37.3903333,51.3086667 37.297,51.4463333 37.199,51.5443333 C37.129,51.6073333 36.884,51.752 36.9166667,51.7613333 C36.7113333,51.7753333 34.8563333,51.7963333 32.04,51.7963333 L7.96,51.7963333 C5.65,51.7963333 3.83,51.766 3.27233333,51.766 C3.172,51.766 3.11133333,51.7683333 3.09733333,51.7706667 C3.04833333,51.7473333 2.90833333,51.6516667 2.81266667,51.556 C2.752,51.4883333 2.62133333,51.2666667 2.59566667,51.2666667 C2.59566667,51.2666667 2.59333333,51.2666667 2.59333333,51.269 C2.57933333,51.0636667 2.55833333,49.211 2.55833333,46.3946667 L2.55833333,7.60533333 C2.55833333,4.77033333 2.60033333,2.83366667 2.591,2.73566667 C2.612,2.689 2.70533333,2.549 2.79633333,2.458 C2.86633333,2.395 3.11366667,2.25266667 3.09266667,2.23866667 C3.31666667,2.22233333 5.24166667,2.206 7.96,2.206 L17.0016667,2.206 C18.3223333,2.206 19.4563333,2.22233333 20.301,2.24566667 L20.301,13.7373333 C20.301,16.8243333 22.814,19.3373333 25.901,19.3373333 L37.4043333,19.3373333 C37.4253333,20.1843333 37.4416667,21.3206667 37.4416667,22.6436667 L37.4416667,46.3946667 L37.4416667,46.3946667 Z" id="Shape"></path>
                            <path d="M19.146,46.1403333 C19.1693333,46.18 19.195,46.2173333 19.2206667,46.2523333 C19.2416667,46.2803333 19.251,46.3083333 19.2743333,46.334 C19.2976667,46.3596667 19.328,46.369 19.356,46.3876667 C19.4236667,46.4413333 19.4936667,46.4996667 19.5776667,46.5346667 C19.7036667,46.586 19.8343333,46.6046667 19.9673333,46.6 C20.217,46.6093333 20.469,46.5253333 20.6603333,46.334 C20.7163333,46.278 20.7466667,46.208 20.7863333,46.145 L27.7256667,39.2056667 C28.0896667,38.8416667 28.0896667,38.249 27.7256667,37.885 C27.5436667,37.703 27.3033333,37.612 27.0653333,37.612 C26.8273333,37.612 26.587,37.703 26.405,37.885 L20.8726667,43.4173333 L20.8726667,29.268 C20.8726667,28.7523333 20.4526667,28.3346667 19.9393333,28.3346667 C19.426,28.3346667 19.006,28.7546667 19.006,29.268 L19.006,43.3543333 L13.5366667,37.885 C13.3546667,37.703 13.1143333,37.612 12.8763333,37.612 C12.6383333,37.612 12.398,37.703 12.216,37.885 C11.852,38.249 11.852,38.8416667 12.216,39.2056667 L19.146,46.1403333 L19.146,46.1403333 Z" id="Shape"></path>
                        </g>
                    </g>
                </g>
            </g>
        </g>
    </g>
</svg>