<?xml version="1.0" encoding="UTF-8" standalone="no"?>
<svg width="25px" height="25px" viewBox="0 0 25 25" version="1.1" xmlns="http://www.w3.org/2000/svg" xmlns:xlink="http://www.w3.org/1999/xlink">
    <!-- Generator: sketchtool 39.1 (31720) - http://www.bohemiancoding.com/sketch -->
    <title>EF18DBD9-FBE2-4BA6-8E79-7876E2D1B7AB</title>
    <desc>Created with sketchtool.</desc>
    <defs></defs>
    <g id="Desktop" stroke="none" stroke-width="1" fill="none" fill-rule="evenodd">
        <g id="3" transform="translate(-802.000000, -77.000000)" fill="#FF4664">
            <g id="drug-logo" transform="translate(802.000000, 77.000000)">
                <path d="M7,7 L18,7 L18,18 L7,18 L7,7 Z M9,9 L16,9 L16,11 L9,11 L9,9 Z M9,12 L16,12 L16,14 L9,14 L9,12 Z" id="Rectangle-12"></path>
                <path d="M12.5,24.5 C19.127417,24.5 24.5,19.127417 24.5,12.5 C24.5,5.872583 19.127417,0.5 12.5,0.5 C5.872583,0.5 0.5,5.872583 0.5,12.5 C0.5,19.127417 5.872583,24.5 12.5,24.5 L12.5,24.5 Z M12.5,23.5 C6.42486775,23.5 1.5,18.5751322 1.5,12.5 C1.5,6.42486775 6.42486775,1.5 12.5,1.5 C18.5751322,1.5 23.5,6.42486775 23.5,12.5 C23.5,18.5751322 18.5751322,23.5 12.5,23.5 L12.5,23.5 Z" id="Shape"></path>
            </g>
        </g>
    </g>
</svg>