<?xml version="1.0" encoding="UTF-8" standalone="no"?>
<svg width="84px" height="100px" viewBox="0 0 84 100" version="1.1" xmlns="http://www.w3.org/2000/svg" xmlns:xlink="http://www.w3.org/1999/xlink">
    <!-- Generator: sketchtool 39.1 (31720) - http://www.bohemiancoding.com/sketch -->
    <title>15CE4686-5FA4-4E8F-8FB9-56F466CCC241</title>
    <desc>Created with sketchtool.</desc>
    <defs></defs>
    <g id="Desktop" stroke="none" stroke-width="1" fill="none" fill-rule="evenodd">
        <g id="3" transform="translate(-236.000000, -1874.000000)" fill="#FFFFFF">
            <g id="Group-2" transform="translate(236.000000, 1874.000000)">
                <g id="noun_32721_cc">
                    <g id="Group">
                        <path d="M17.9262632,0 C15.5632105,0 13.6466842,1.92555556 13.6466842,4.30222222 L13.6466842,18.6411111 C13.6466842,21.0166667 15.5621053,22.9433333 17.9262632,22.9433333 C20.2904211,22.9433333 22.2058421,21.0177778 22.2058421,18.6411111 L22.2058421,4.30222222 C22.2047368,1.92555556 20.2893158,0 17.9262632,0 L17.9262632,0 Z M65.3431579,0 C62.9801053,0 61.0635789,1.92555556 61.0635789,4.30222222 L61.0635789,18.6411111 C61.0635789,21.0166667 62.979,22.9433333 65.3431579,22.9433333 C67.7062105,22.9433333 69.6227368,21.0177778 69.6227368,18.6411111 L69.6227368,4.30222222 C69.6227368,1.92555556 67.7062105,0 65.3431579,0 L65.3431579,0 Z M79.9724211,9.09 L72.6710526,9.09 L72.6710526,18.6411111 C72.6710526,22.7033333 69.384,26.0077778 65.3431579,26.0077778 C61.3023158,26.0077778 58.0152632,22.7033333 58.0152632,18.6411111 L58.0152632,9.09 L25.2519474,9.09 L25.2519474,18.6411111 C25.2519474,22.7033333 21.9648947,26.0077778 17.9240526,26.0077778 C13.8832105,26.0077778 10.5961579,22.7033333 10.5961579,18.6411111 L10.5961579,9.09 L4.02868421,9.09 C2.34536842,9.09 0.980368421,10.4622222 0.980368421,12.1544444 L0.980368421,96.9355556 C0.980368421,98.6277778 2.34536842,100 4.02868421,100 L79.9702105,100 C81.6535263,100 83.0185263,98.6277778 83.0185263,96.9355556 L83.0185263,12.1544444 C83.0207368,10.4622222 81.6557368,9.09 79.9724211,9.09 L79.9724211,9.09 Z M79.9724211,96.9355556 L4.02978947,96.9355556 L4.02978947,40.24 L79.9713158,40.24 L79.9724211,96.9355556 L79.9724211,96.9355556 L79.9724211,96.9355556 Z" id="Shape"></path>
                    </g>
                </g>
                <path d="M28.1873684,82 L33.0673684,82 L33.0673684,53.8 L29.6673684,53.8 L22.1073684,56.2 L23.1473684,60.2 L28.1873684,58.8 L28.1873684,82 Z M49.0673684,82.48 C55.2673684,82.48 59.4673684,78.72 59.4673684,73 L59.4673684,72.92 C59.4673684,67 55.1473684,64.12 49.7073684,64.12 C47.8273684,64.12 46.5873684,64.44 45.2673684,64.92 L45.7073684,58.36 L58.2273684,58.36 L58.2273684,54 L41.4673684,54 L40.6673684,67.72 L43.6273684,69.68 C45.0673684,69 46.7873684,68.44 48.7873684,68.44 C52.1873684,68.44 54.5873684,70.24 54.5873684,73.08 L54.5873684,73.16 C54.5873684,76.08 52.3873684,78 49.0273684,78 C46.4273684,78 44.0673684,76.72 41.8273684,74.64 L38.7873684,78.2 C41.4273684,80.76 44.7873684,82.48 49.0673684,82.48 L49.0673684,82.48 Z" id="15"></path>
            </g>
        </g>
    </g>
</svg>