<?xml version="1.0" encoding="UTF-8" standalone="no"?>
<svg width="480px" height="166px" viewBox="0 0 480 166" version="1.1" xmlns="http://www.w3.org/2000/svg" xmlns:xlink="http://www.w3.org/1999/xlink">
    <!-- Generator: sketchtool 39.1 (31720) - http://www.bohemiancoding.com/sketch -->
    <title>144070BA-DB12-45AA-AB9F-B33C02A15A62</title>
    <desc>Created with sketchtool.</desc>
    <defs>
        <linearGradient x1="8.32208916%" y1="49.9995158%" x2="75.9566885%" y2="49.9995158%" id="linearGradient-1">
            <stop stop-color="#B9E5FB" offset="0%"></stop>
            <stop stop-color="#00568A" offset="100%"></stop>
        </linearGradient>
        <path d="M0.3066,0.512382671 C39.1632,6.65138628 69.7746,31.2127942 77.4132,62.3932274 L77.4132,0.513581227 L77.412,0.512382671 L0.3066,0.512382671 L0.3066,0.512382671 Z" id="path-2"></path>
        <linearGradient x1="64.0847969%" y1="37.6571398%" x2="17.9215651%" y2="77.7597385%" id="linearGradient-4">
            <stop stop-color="#B9E5FB" offset="0%"></stop>
            <stop stop-color="#00568A" offset="100%"></stop>
        </linearGradient>
        <linearGradient x1="2.26721881%" y1="50.0015002%" x2="39.721855%" y2="50.0015002%" id="linearGradient-5">
            <stop stop-color="#CA0D45" offset="0%"></stop>
            <stop stop-color="#D91933" offset="3%"></stop>
            <stop stop-color="#70034B" offset="100%"></stop>
        </linearGradient>
        <path d="M0.012,36.4708592 L184.7868,36.4708592 L184.8078,36.4564765 C91.6674,32.8668014 18.3336,18.6051841 0.012,0.517776173 L0.012,36.4708592 L0.012,36.4708592 Z" id="path-6"></path>
        <linearGradient x1="18.8552209%" y1="71.8176995%" x2="45.3987677%" y2="53.2006854%" id="linearGradient-8">
            <stop stop-color="#CA0D45" offset="0%"></stop>
            <stop stop-color="#D91933" offset="3%"></stop>
            <stop stop-color="#70034B" offset="100%"></stop>
        </linearGradient>
    </defs>
    <g id="Desktop" stroke="none" stroke-width="1" fill="none" fill-rule="evenodd">
        <g id="3" transform="translate(-330.000000, -251.000000)">
            <g id="logo" transform="translate(330.000000, 251.000000)">
                <path d="M187.4646,134.584051 C185.9424,132.969596 184.2804,131.219704 182.574,127.302224 C181.5132,124.814022 179.9436,120.112686 179.9436,114.765329 C179.9436,111.955314 180.3588,108.498079 181.7892,104.765776 C183.6348,99.9260072 185.5266,97.7596173 187.419,95.5932274 L187.419,98.1743177 C186.2646,99.7414296 184.7418,101.769386 183.3582,106.423978 C182.4816,109.235791 182.0202,112.092549 182.0202,115.042794 C182.0202,117.806664 182.6202,121.311242 183.3582,123.937877 C184.6032,128.223314 186.3108,130.437047 187.4646,131.956217 L187.4646,134.584051 L187.4646,134.584051 Z" id="Shape" fill="#403F41"></path>
                <path d="M191.8962,110.848448 C191.8962,109.696635 191.8962,104.995899 197.2026,104.995899 C202.3704,104.995899 202.5552,109.419769 202.5552,111.217004 L202.5552,113.24556 L200.616,113.24556 C200.616,110.618924 200.616,110.018448 200.34,109.097357 C199.9242,107.668679 198.9096,106.700245 197.2938,106.700245 C193.8804,106.700245 193.8804,110.15748 193.8804,110.985682 L193.8804,120.942087 C193.8804,123.384144 193.8804,126.471625 197.5248,126.471625 C200.7558,126.471625 200.7558,123.521978 200.7558,122.693177 L200.7558,119.32943 L202.7862,119.32943 L202.7862,122.323422 C202.7862,123.891134 202.7862,128.316202 197.1552,128.316202 C194.3412,128.316202 193.1418,126.656202 192.957,126.379336 C191.9412,124.951856 191.8962,123.062332 191.8962,121.540765 L191.8962,110.848448 L191.8962,110.848448 Z" id="Shape" fill="#403F41"></path>
                <path d="M215.7078,115.319061 C214.9692,115.826051 214.7844,115.918339 212.9388,116.931718 C210.5862,118.269307 208.6482,119.373776 208.6482,122.785466 C208.6482,124.630043 209.478,126.333791 211.647,126.333791 C213.6774,126.333791 214.7844,125.137032 215.7078,124.121256 L215.7078,115.319061 L215.7078,115.319061 Z M207.6324,112.139292 C207.6324,108.590368 207.6324,104.856267 212.9388,104.856267 C217.6458,104.856267 217.6458,108.498079 217.6458,109.926758 L217.6458,125.506188 C217.6458,126.288845 218.3376,126.333791 219.03,126.333791 L219.03,128.178368 C216.9996,128.178368 216.1236,127.900903 215.7078,126.379935 C214.692,127.162592 213.4002,128.178368 211.2324,128.178368 C207.9558,128.178368 206.6628,125.596079 206.6628,122.738722 C206.6628,118.314253 209.3856,116.702195 211.7868,115.456895 C214.1382,114.213394 214.4622,114.073762 215.6616,113.152671 L215.6616,110.479892 C215.6616,108.405791 215.4318,106.700845 212.7078,106.700845 C209.6166,106.700845 209.6166,109.050614 209.6166,112.139292 L207.6324,112.139292 L207.6324,112.139292 Z" id="Shape" fill="#403F41"></path>
                <path d="M231.8604,110.802303 C231.8604,108.360245 231.0294,106.563011 228.768,106.563011 C226.9698,106.563011 225.0768,107.714823 225.0768,110.756159 L225.0768,121.909321 C225.0768,125.181379 227.1996,126.563913 228.768,126.563913 C229.506,126.563913 230.1984,126.289444 230.7066,125.780657 C231.8604,124.67439 231.8604,122.970043 231.8604,122.093899 L231.8604,110.802303 L231.8604,110.802303 Z M225.0306,95.6399711 L225.0306,106.977112 C225.723,106.101567 226.785,104.718433 229.275,104.718433 C233.7978,104.718433 233.7978,109.235191 233.7978,110.894592 L233.7978,122.785466 C233.7978,126.197155 231.6288,128.316202 228.9066,128.316202 C226.6002,128.316202 225.5856,126.933668 225.123,126.289444 L225.123,128.178968 L223.0926,128.178968 L223.0926,95.6399711 L225.0306,95.6399711 L225.0306,95.6399711 Z" id="Shape" fill="#403F41"></path>
                <path d="M248.0112,110.802303 C248.0112,109.927357 248.0112,106.792534 244.7352,106.792534 C241.137,106.792534 241.137,109.835069 241.137,111.355437 L241.137,122.555343 C241.137,123.339199 241.137,126.379336 244.458,126.379336 C246.351,126.379336 248.0112,125.4133 248.0112,122.370765 L248.0112,110.802303 L248.0112,110.802303 Z M239.1516,110.434347 C239.1516,105.779155 242.6136,104.856866 244.689,104.856866 C249.9966,104.856866 249.9966,109.144101 249.9966,110.57278 L249.9966,121.588108 C249.9966,123.42909 249.858,124.814022 248.9808,126.104866 C247.5042,128.271256 245.0124,128.271256 244.5054,128.271256 C244.0902,128.271256 242.7522,128.271256 241.413,127.487401 C239.4288,126.379336 239.1516,124.582101 239.1516,122.600888 L239.1516,110.434347 L239.1516,110.434347 Z" id="Shape" fill="#403F41"></path>
                <polygon id="Shape" fill="#403F41" points="254.982 104.9953 264.6264 104.9953 264.6264 106.563011 256.5972 126.242101 264.6264 126.242101 264.6264 128.178368 254.3358 128.178368 254.3358 126.471625 262.2726 106.930968 254.982 106.930968"></polygon>
                <path d="M277.3632,115.319061 C276.6246,115.826051 276.4398,115.918339 274.5942,116.931718 C272.2416,118.269307 270.3036,119.373776 270.3036,122.785466 C270.3036,124.630043 271.1334,126.333791 273.303,126.333791 C275.3328,126.333791 276.4398,125.137032 277.3632,124.121256 L277.3632,115.319061 L277.3632,115.319061 Z M269.2878,112.139292 C269.2878,108.590368 269.2878,104.856267 274.5942,104.856267 C279.3006,104.856267 279.3006,108.498079 279.3006,109.926758 L279.3006,125.506188 C279.3006,126.288845 279.993,126.333791 280.6866,126.333791 L280.6866,128.178368 C278.655,128.178368 277.7778,127.900903 277.3632,126.379935 C276.3474,127.162592 275.055,128.178368 272.8872,128.178368 C269.61,128.178368 268.3182,125.596079 268.3182,122.738722 C268.3182,118.314253 271.0416,116.702195 273.441,115.456895 C275.7936,114.213394 276.117,114.073762 277.3164,113.152671 L277.3164,110.479892 C277.3164,108.405791 277.0854,106.700845 274.3632,106.700845 C271.272,106.700845 271.272,109.050614 271.272,112.139292 L269.2878,112.139292 L269.2878,112.139292 Z" id="Shape" fill="#403F41"></path>
                <path d="M286.8246,107.207834 C287.1468,106.6547 287.5164,106.056022 288.4398,105.456744 C289.1784,104.9953 290.1006,104.719032 291.1152,104.719032 C291.7608,104.719032 292.6842,104.856866 293.5152,105.31831 C295.4994,106.470123 295.4994,108.636513 295.4994,109.557603 L295.4994,128.178368 L293.5614,128.178368 L293.5614,109.603747 C293.5614,107.16169 291.9924,106.423978 290.7,106.423978 C289.5468,106.423978 288.3936,106.977711 287.655,107.806513 C287.193,108.359646 287.0094,108.819892 286.8246,109.328079 L286.8246,128.178368 L284.8866,128.178368 L284.8866,104.949155 L286.8246,104.949155 L286.8246,107.207834 L286.8246,107.207834 Z" id="Shape" fill="#403F41"></path>
                <path d="M301.4076,99.0498628 L303.438,99.0498628 L303.438,104.949155 L306.945,104.949155 L306.945,106.838679 L303.438,106.838679 L303.438,124.213545 C303.438,125.457646 303.438,126.426079 305.145,126.426079 C305.652,126.426079 306.4368,126.378736 306.945,126.333791 L306.945,128.131025 C306.2532,128.223314 305.5608,128.270657 304.8684,128.270657 C302.1462,128.270657 301.4538,127.302224 301.4538,125.550534 L301.4538,106.838679 L298.9614,106.838679 L298.9614,104.949155 L301.4076,104.949155 L301.4076,99.0498628 L301.4076,99.0498628 Z" id="Shape" fill="#403F41"></path>
                <path d="M310.452,104.949155 L312.3912,104.949155 L312.3912,128.178368 L310.452,128.178368 L310.452,104.949155 L310.452,104.949155 Z M310.452,98.6807076 L312.3912,98.6807076 L312.3912,102.275776 L310.452,102.275776 L310.452,98.6807076 L310.452,98.6807076 Z" id="Shape" fill="#403F41"></path>
                <path d="M320.19,107.207834 C320.5122,106.6547 320.8818,106.056022 321.8052,105.456744 C322.5438,104.9953 323.466,104.719032 324.4806,104.719032 C325.1262,104.719032 326.0496,104.856866 326.8806,105.31831 C328.8648,106.470123 328.8648,108.636513 328.8648,109.557603 L328.8648,128.178368 L326.9268,128.178368 L326.9268,109.603747 C326.9268,107.16169 325.3578,106.423978 324.0654,106.423978 C322.9122,106.423978 321.759,106.977711 321.0204,107.806513 C320.5584,108.359646 320.3748,108.819892 320.19,109.328079 L320.19,128.178368 L318.252,128.178368 L318.252,104.949155 L320.19,104.949155 L320.19,107.207834 L320.19,107.207834 Z" id="Shape" fill="#403F41"></path>
                <path d="M334.266,104.949155 L336.204,104.949155 L336.204,128.178368 L334.266,128.178368 L334.266,104.949155 L334.266,104.949155 Z M334.266,98.6807076 L336.204,98.6807076 L336.204,102.275776 L334.266,102.275776 L334.266,98.6807076 L334.266,98.6807076 Z" id="Shape" fill="#403F41"></path>
                <path d="M350.6946,110.802303 C350.6946,108.360245 349.8636,106.563011 347.6022,106.563011 C345.804,106.563011 343.911,107.714823 343.911,110.756159 L343.911,121.909321 C343.911,125.181379 346.0338,126.563913 347.6022,126.563913 C348.3402,126.563913 349.0326,126.289444 349.5402,125.780657 C350.6946,124.67439 350.6946,122.970043 350.6946,122.093899 L350.6946,110.802303 L350.6946,110.802303 Z M343.8648,95.6399711 L343.8648,106.977112 C344.5572,106.101567 345.6192,104.718433 348.1092,104.718433 C352.632,104.718433 352.632,109.235191 352.632,110.894592 L352.632,122.785466 C352.632,126.197155 350.463,128.316202 347.7408,128.316202 C345.4338,128.316202 344.4186,126.933668 343.9572,126.289444 L343.9572,128.178968 L341.9268,128.178968 L341.9268,95.6399711 L343.8648,95.6399711 L343.8648,95.6399711 Z" id="Shape" fill="#403F41"></path>
                <path d="M357.48,95.547083 C359.0028,97.1603394 360.6636,98.9114296 362.37,102.875054 C363.432,105.364455 365.0016,110.064592 365.0016,115.364606 C365.0016,118.268708 364.539,121.680397 363.1548,125.4127 C361.3548,130.205126 359.418,132.417661 357.5262,134.536708 L357.5262,131.956217 C358.6794,130.389704 360.2022,128.362946 361.5858,123.707155 C362.463,120.941487 362.9238,118.038585 362.9238,115.135083 C362.9238,112.369415 362.3238,108.820491 361.5858,106.240599 C360.3408,101.907819 358.6332,99.6952852 357.48,98.2198628 L357.48,95.547083 L357.48,95.547083 Z" id="Shape" fill="#403F41"></path>
                <path d="M383.8944,100.117177 L383.8944,105.125343 L385.8828,105.125343 L385.8828,107.97431 L383.8944,107.97431 L383.8944,123.946866 C383.8944,125.500794 384.4128,125.672787 386.1414,125.586491 L386.1414,128.221516 C385.536,128.307213 384.9312,128.435458 384.153,128.435458 C380.6526,128.435458 380.3928,127.09787 380.3928,124.638433 L380.3928,107.97431 L378.3192,107.97431 L378.3192,105.125343 L380.4354,105.125343 L380.4354,100.117177 L383.8944,100.117177 L383.8944,100.117177 Z" id="Shape" fill="#403F41"></path>
                <path d="M395.217,116.695004 C394.8714,116.995242 393.8334,117.729357 393.0984,118.204585 C392.1048,118.895552 391.8462,119.587119 391.8462,120.578325 L391.8462,122.909516 C391.8462,124.118859 391.8462,125.672787 393.2286,125.672787 C395.217,125.672787 395.217,122.695574 395.217,122.132852 L395.217,116.695004 L395.217,116.695004 Z M388.647,109.657682 C388.647,108.362643 388.647,104.650715 393.6612,104.650715 C398.676,104.650715 398.676,108.104354 398.676,109.614534 L398.676,124.249502 C398.676,125.672787 398.7186,126.927076 399.3228,128.177769 L395.6064,128.177769 C395.2596,127.357957 395.217,127.184166 395.001,126.321805 C394.353,127.315408 393.5748,128.436058 391.6722,128.436058 C388.3872,128.436058 388.3872,125.672787 388.3872,124.552137 L388.3872,120.450079 C388.3872,118.767307 388.3872,117.472267 390.5058,116.132282 L393.8334,114.061776 C394.569,113.587148 395.217,112.93813 395.217,112.724188 L395.217,109.26935 C395.217,108.492087 395.0874,107.498484 393.7038,107.498484 C392.1918,107.498484 392.1918,108.578383 392.1918,109.226801 L392.1918,112.463502 L388.647,112.463502 L388.647,109.657682 L388.647,109.657682 Z" id="Shape" fill="#403F41"></path>
                <path d="M409.7382,109.743978 C409.7382,109.05361 409.7382,107.801718 408.225,107.801718 C406.5402,107.801718 406.41,109.441942 406.41,110.046614 L406.41,122.955661 C406.41,124.118859 406.41,125.415697 408.0522,125.415697 C409.1754,125.415697 409.7382,124.595884 409.7382,123.42969 L409.7382,109.743978 L409.7382,109.743978 Z M402.9522,97.6996895 L406.41,97.6996895 L406.41,106.678671 C406.713,106.160895 407.5764,104.736412 409.7382,104.736412 C411.0342,104.736412 412.0722,105.297935 412.6344,106.160895 C413.1528,106.980708 413.2398,107.97431 413.2398,108.708426 L413.2398,123.298448 C413.2398,124.163805 413.2398,128.5667 409.0026,128.5667 C406.626,128.5667 405.9774,127.012773 405.675,126.235509 C405.1998,127.055321 405.1128,127.269863 404.8968,128.177769 L402.9522,128.177769 L402.9522,97.6996895 L402.9522,97.6996895 Z" id="Shape" fill="#403F41"></path>
                <rect id="Rectangle-path" fill="#403F41" x="417.4722" y="97.6990903" width="3.5016" height="30.4780794"></rect>
                <path d="M432.1248,109.657682 C432.1248,108.707827 432.1248,107.54283 430.5258,107.54283 C428.754,107.54283 428.754,108.967314 428.754,110.046614 L428.754,114.492657 L432.1248,114.492657 L432.1248,109.657682 L432.1248,109.657682 Z M425.3388,111.384202 C425.3388,109.744578 425.3388,108.491487 425.7714,107.499083 C426.4614,105.643718 428.364,104.692664 430.5258,104.692664 C435.6264,104.692664 435.6264,108.83787 435.6264,109.872823 L435.6264,117.384773 L428.754,117.384773 L428.754,123.86057 C428.754,124.507191 428.754,125.76148 430.3956,125.76148 C432.0816,125.76148 432.1248,124.335798 432.1248,123.644231 L432.1248,119.587119 L435.6264,119.587119 L435.6264,122.866968 C435.6264,124.250101 435.6264,128.5673 430.353,128.5673 C429.6174,128.5673 428.9268,128.480404 428.277,128.264065 C425.3388,127.315408 425.3388,124.810426 425.3388,123.774874 L425.3388,111.384202 L425.3388,111.384202 Z" id="Shape" fill="#403F41"></path>
                <path d="M443.8794,100.117177 L443.8794,105.125343 L445.8678,105.125343 L445.8678,107.97431 L443.8794,107.97431 L443.8794,123.946866 C443.8794,125.500794 444.3978,125.672787 446.1264,125.586491 L446.1264,128.221516 C445.521,128.307213 444.9156,128.435458 444.138,128.435458 C440.637,128.435458 440.3778,127.09787 440.3778,124.638433 L440.3778,107.97431 L438.3042,107.97431 L438.3042,105.125343 L440.4204,105.125343 L440.4204,100.117177 L443.8794,100.117177 L443.8794,100.117177 Z" id="Shape" fill="#403F41"></path>
                <path d="M451.3572,116.738152 C448.9356,114.23317 448.2876,112.981278 448.2876,110.434946 C448.2876,107.283343 449.628,104.736412 453.4314,104.736412 C458.2284,104.736412 458.2722,108.448339 458.3154,111.990072 L455.073,111.990072 C455.073,109.096758 454.8576,107.930563 453.2148,107.930563 C451.5726,107.930563 451.5288,109.399394 451.5288,110.13231 C451.5288,111.471097 451.8324,112.289711 453.3882,113.80109 L454.9872,115.355617 C456.8022,117.127083 458.4882,118.853004 458.4882,122.349191 C458.4882,126.709538 456.111,128.609848 453.1284,128.609848 C451.2702,128.609848 449.1954,127.918881 448.3734,125.58769 C447.9408,124.378347 447.9408,123.515386 447.9408,119.672816 L451.227,119.672816 C451.227,122.695574 451.227,123.472838 451.3572,124.118859 C451.7016,125.415697 452.5236,125.544542 453.2148,125.544542 C455.073,125.544542 455.073,123.729928 455.073,122.566729 C455.073,121.269892 454.9002,120.321235 453.2148,118.592318 L451.3572,116.738152 L451.3572,116.738152 Z" id="Shape" fill="#403F41"></path>
                <path d="M259.2834,150.35465 C257.8302,150.35465 257.1552,151.471105 257.1552,152.649285 C257.1552,153.090953 257.2608,154.963097 259.2198,154.963097 C260.8224,154.963097 261.3072,153.721993 261.3072,152.67026 C261.3072,151.282332 260.5482,150.35465 259.2834,150.35465 L259.2834,150.35465 Z M261.096,146.608563 C261.0546,145.32491 260.0418,145.00909 259.4322,145.00909 C257.3664,145.00909 257.0088,147.471523 256.902,149.407791 C257.6406,148.482505 258.63,147.976116 259.8954,147.976116 C261.918,147.976116 263.9628,149.386217 263.9628,152.395191 C263.9628,155.322664 261.918,157.320657 259.1778,157.320657 C257.1138,157.320657 255.87,156.228173 255.2592,155.300491 C254.3736,153.953913 254.163,152.018245 254.163,150.437949 C254.163,148.460332 254.4372,142.692282 259.452,142.692282 C261.3072,142.692282 262.5708,143.576816 263.2044,144.566224 C263.625,145.241011 263.7306,145.849877 263.7942,146.228022 L261.096,146.608563 L261.096,146.608563 Z" id="Shape" fill="#403F41"></path>
                <path d="M271.4694,145.00909 C269.1936,145.00909 268.9404,147.702845 268.9404,150.144303 C268.9404,152.459913 269.1516,154.984671 271.4274,154.984671 C273.429,154.984671 273.873,153.02743 273.873,150.03883 C273.873,146.797336 273.2388,145.00909 271.4694,145.00909 M273.513,156.880787 C272.8392,157.196007 272.1024,157.320657 271.3638,157.320657 C268.9206,157.320657 267.7188,155.869805 267.2334,155.111119 C266.349,153.701018 266.2014,151.743177 266.2014,150.101155 C266.2014,148.650303 266.307,146.292744 267.465,144.693271 C268.245,143.619365 269.658,142.692881 271.4916,142.692881 C272.7546,142.692881 274.3152,143.112975 275.4102,144.756195 C276.5064,146.398217 276.5898,148.565805 276.5898,149.954931 C276.5898,152.500664 276.2322,155.637884 273.513,156.880787" id="Shape" fill="#403F41"></path>
                <path d="M284.3526,146.608563 L286.8606,146.608563 L286.8606,147.786744 C287.7036,146.734412 289.1988,146.292744 290.1906,146.292744 C291.18,146.292744 292.4232,146.670888 293.1198,147.913191 C293.5416,147.322903 294.6366,146.292744 296.4906,146.292744 C297.5442,146.292744 298.5564,146.58639 299.2728,147.365451 C300.1158,148.291336 300.0948,149.407791 300.0948,150.502671 L300.0948,157.131285 L297.5868,157.131285 L297.5868,151.322484 C297.5868,150.333076 297.7344,148.671278 295.8174,148.671278 C295.0152,148.671278 294.3624,149.112946 294.0258,149.660686 C293.5416,150.437949 293.4774,151.281733 293.4774,152.185444 L293.4774,157.131285 L290.97,157.131285 L290.97,151.25956 C290.97,150.502671 290.97,150.227603 290.886,149.912383 C290.6958,149.219018 290.1486,148.671278 289.263,148.671278 C288.5034,148.671278 287.7672,149.112946 287.3238,149.890209 C286.8816,150.712419 286.8606,151.703025 286.8606,152.732585 L286.8606,157.131285 L284.3526,157.131285 L284.3526,146.608563 L284.3526,146.608563 Z" id="Shape" fill="#403F41"></path>
                <path d="M307.3518,148.54483 C306.0654,148.54483 304.7604,149.407191 304.7604,151.427957 C304.7604,153.258751 305.8758,154.205011 307.3728,154.205011 C308.7198,154.205011 309.942,153.468498 309.9642,151.53343 C309.9864,149.828484 309.0576,148.54483 307.3518,148.54483 L307.3518,148.54483 Z M312.4086,146.607964 L312.4086,155.238166 C312.3864,157.320058 312.3864,158.16444 311.7324,159.047177 C311.1438,159.826238 309.8376,160.648448 307.3518,160.648448 C303.6,160.648448 302.8632,159.027401 302.5044,157.342231 L305.286,157.342231 C305.4756,157.954094 305.9178,158.646859 307.4352,158.646859 C308.7198,158.646859 309.2898,158.142267 309.522,157.806072 C309.8994,157.279307 309.8994,156.67044 309.8994,155.38439 C309.3534,155.891379 308.2572,156.522419 306.7398,156.522419 C304.254,156.522419 302.1672,154.839646 302.1672,151.492679 C302.1672,147.576397 304.9704,146.292744 306.9096,146.292744 C308.8056,146.292744 309.6054,147.323502 309.8994,147.702845 L309.8994,146.607964 L312.4086,146.607964 L312.4086,146.607964 Z" id="Shape" fill="#403F41"></path>
                <path d="M331.7628,151.702426 L331.9104,146.060823 L328.2438,151.702426 L331.7628,151.702426 L331.7628,151.702426 Z M336.1878,151.702426 L336.1878,153.84904 L334.3338,153.84904 L334.3338,157.131285 L331.7628,157.131285 L331.7628,153.84904 L325.5246,153.84904 L325.5246,151.997271 L331.7628,142.902628 L334.3338,142.902628 L334.3338,151.702426 L336.1878,151.702426 L336.1878,151.702426 Z" id="Shape" fill="#403F41"></path>
                <path d="M343.4628,145.00909 C341.187,145.00909 340.9338,147.702845 340.9338,150.144303 C340.9338,152.459913 341.145,154.984671 343.4208,154.984671 C345.423,154.984671 345.8664,153.02743 345.8664,150.03883 C345.8664,146.797336 345.2322,145.00909 343.4628,145.00909 M345.5064,156.880787 C344.8332,157.196007 344.0958,157.320657 343.3572,157.320657 C340.914,157.320657 339.7122,155.869805 339.2274,155.111119 C338.3424,153.701018 338.1948,151.743177 338.1948,150.101155 C338.1948,148.650303 338.3004,146.292744 339.4584,144.693271 C340.2384,143.619365 341.6514,142.692881 343.485,142.692881 C344.748,142.692881 346.3086,143.112975 347.4036,144.756195 C348.4998,146.398217 348.5832,148.565805 348.5832,149.954931 C348.5832,152.500664 348.2256,155.637884 345.5064,156.880787" id="Shape" fill="#403F41"></path>
                <path d="M356.346,146.608563 L358.854,146.608563 L358.854,147.786744 C359.697,146.734412 361.1928,146.292744 362.184,146.292744 C363.1734,146.292744 364.4172,146.670888 365.1138,147.913191 C365.535,147.322903 366.63,146.292744 368.484,146.292744 C369.5376,146.292744 370.5498,146.58639 371.2662,147.365451 C372.1092,148.291336 372.0882,149.407791 372.0882,150.502671 L372.0882,157.131285 L369.5802,157.131285 L369.5802,151.322484 C369.5802,150.333076 369.7278,148.671278 367.8108,148.671278 C367.0086,148.671278 366.3558,149.112946 366.0192,149.660686 C365.535,150.437949 365.4714,151.281733 365.4714,152.185444 L365.4714,157.131285 L362.9634,157.131285 L362.9634,151.25956 C362.9634,150.502671 362.9634,150.227603 362.8794,149.912383 C362.6892,149.219018 362.142,148.671278 361.2564,148.671278 C360.4968,148.671278 359.7606,149.112946 359.3172,149.890209 C358.875,150.712419 358.854,151.703025 358.854,152.732585 L358.854,157.131285 L356.346,157.131285 L356.346,146.608563 L356.346,146.608563 Z" id="Shape" fill="#403F41"></path>
                <path d="M379.3452,148.54483 C378.0588,148.54483 376.7538,149.407191 376.7538,151.427957 C376.7538,153.258751 377.8692,154.205011 379.3662,154.205011 C380.7144,154.205011 381.9366,153.468498 381.9576,151.53343 C381.9798,149.828484 381.0522,148.54483 379.3452,148.54483 L379.3452,148.54483 Z M384.4032,146.607964 L384.4032,155.238166 C384.381,157.320058 384.381,158.16444 383.727,159.047177 C383.1372,159.826238 381.8322,160.648448 379.3452,160.648448 C375.5934,160.648448 374.8566,159.027401 374.4978,157.342231 L377.2794,157.342231 C377.469,157.954094 377.9112,158.646859 379.4286,158.646859 C380.7144,158.646859 381.2844,158.142267 381.5154,157.806072 C381.894,157.279307 381.894,156.67044 381.894,155.38439 C381.3468,155.891379 380.2506,156.522419 378.7332,156.522419 C376.2474,156.522419 374.1606,154.839646 374.1606,151.492679 C374.1606,147.576397 376.9638,146.292744 378.903,146.292744 C380.799,146.292744 381.6,147.323502 381.894,147.702845 L381.894,146.607964 L384.4032,146.607964 L384.4032,146.607964 Z" id="Shape" fill="#403F41"></path>
                <path d="M408.0348,154.943921 L408.0348,157.131285 L398.3628,157.131285 L398.3628,155.090144 C400.1742,153.849639 401.9658,152.144693 402.8088,151.281733 C403.5888,150.480498 404.895,149.112946 404.895,147.239004 C404.895,146.144722 404.3472,145.114563 403.0188,145.114563 C400.9332,145.114563 400.9962,147.387625 401.0178,148.396809 L398.3628,148.164888 C398.3628,146.166296 399.0162,144.882643 399.5634,144.230029 C400.3434,143.323921 401.6916,142.692881 403.23,142.692881 C405.927,142.692881 407.8038,144.439776 407.8038,147.134729 C407.8038,149.428765 406.3914,151.069588 404.832,152.47969 C404.5164,152.754758 402.6192,154.354231 401.8194,154.943921 L408.0348,154.943921 L408.0348,154.943921 Z" id="Shape" fill="#403F41"></path>
                <path d="M415.0362,145.00909 C412.7604,145.00909 412.5072,147.702845 412.5072,150.144303 C412.5072,152.459913 412.7184,154.984671 414.9942,154.984671 C416.9958,154.984671 417.4398,153.02743 417.4398,150.03883 C417.4398,146.797336 416.8056,145.00909 415.0362,145.00909 M417.0798,156.880787 C416.406,157.196007 415.6692,157.320657 414.9306,157.320657 C412.4874,157.320657 411.2856,155.869805 410.8002,155.111119 C409.9158,153.701018 409.7682,151.743177 409.7682,150.101155 C409.7682,148.650303 409.8738,146.292744 411.0318,144.693271 C411.8118,143.619365 413.2248,142.692881 415.0584,142.692881 C416.3214,142.692881 417.882,143.112975 418.977,144.756195 C420.0732,146.398217 420.1566,148.565805 420.1566,149.954931 C420.1566,152.500664 419.799,155.637884 417.0798,156.880787" id="Shape" fill="#403F41"></path>
                <path d="M427.9194,146.608563 L430.4274,146.608563 L430.4274,147.786744 C431.2704,146.734412 432.7656,146.292744 433.7574,146.292744 C434.7468,146.292744 435.99,146.670888 436.6866,147.913191 C437.1084,147.322903 438.2034,146.292744 440.0574,146.292744 C441.1104,146.292744 442.1232,146.58639 442.8396,147.365451 C443.6826,148.291336 443.6616,149.407791 443.6616,150.502671 L443.6616,157.131285 L441.1536,157.131285 L441.1536,151.322484 C441.1536,150.333076 441.3012,148.671278 439.3842,148.671278 C438.582,148.671278 437.9292,149.112946 437.5926,149.660686 C437.1084,150.437949 437.0442,151.281733 437.0442,152.185444 L437.0442,157.131285 L434.5362,157.131285 L434.5362,151.25956 C434.5362,150.502671 434.5362,150.227603 434.4528,149.912383 C434.2626,149.219018 433.7154,148.671278 432.8298,148.671278 C432.0702,148.671278 431.334,149.112946 430.8906,149.890209 C430.4484,150.712419 430.4274,151.703025 430.4274,152.732585 L430.4274,157.131285 L427.9194,157.131285 L427.9194,146.608563 L427.9194,146.608563 Z" id="Shape" fill="#403F41"></path>
                <path d="M450.9186,148.54483 C449.6322,148.54483 448.3266,149.407191 448.3266,151.427957 C448.3266,153.258751 449.4426,154.205011 450.939,154.205011 C452.2872,154.205011 453.51,153.468498 453.531,151.53343 C453.5526,149.828484 452.625,148.54483 450.9186,148.54483 L450.9186,148.54483 Z M455.976,146.607964 L455.976,155.238166 C455.9544,157.320058 455.9544,158.16444 455.3004,159.047177 C454.7106,159.826238 453.4056,160.648448 450.9186,160.648448 C447.1668,160.648448 446.4294,159.027401 446.0706,157.342231 L448.8528,157.342231 C449.0418,157.954094 449.4846,158.646859 451.002,158.646859 C452.2872,158.646859 452.8572,158.142267 453.0882,157.806072 C453.4668,157.279307 453.4668,156.67044 453.4668,155.38439 C452.9202,155.891379 451.824,156.522419 450.3066,156.522419 C447.8208,156.522419 445.734,154.839646 445.734,151.492679 C445.734,147.576397 448.5372,146.292744 450.4758,146.292744 C452.3718,146.292744 453.1734,147.323502 453.4668,147.702845 L453.4668,146.607964 L455.976,146.607964 L455.976,146.607964 Z" id="Shape" fill="#403F41"></path>
                <rect id="Rectangle-path" fill="#DC1931" x="318.9336" y="138.207884" width="1" height="27.3366643"></rect>
                <rect id="Rectangle-path" fill="#DC1931" x="390.9282" y="138" width="1" height="27.3366643"></rect>
                <path d="M92.6574,70.2563538 L92.6574,70.1514801 C92.6574,59.8331119 100.3926,51.3796968 111.3996,51.3796968 C118.0968,51.3796968 122.148,53.7126859 125.6256,57.0320866 L121.524,61.7508014 C118.6164,59.0546498 115.5024,57.2400361 111.3468,57.2400361 C104.3898,57.2400361 99.3552,62.9433646 99.3552,70.0484043 L99.3552,70.1514801 C99.3552,77.2565199 104.3898,83.0641227 111.3468,83.0641227 C115.8138,83.0641227 118.668,81.249509 121.7838,78.3460072 L125.8848,82.4942094 C122.0952,86.4356606 117.942,88.9238628 111.1398,88.9238628 C100.5504,88.9238628 92.6574,80.6789964 92.6574,70.2563538" id="Shape" fill="#00568A"></path>
                <path d="M157.1928,73.8855812 L150.9114,59.3662744 L144.6816,73.8855812 L157.1928,73.8855812 L157.1928,73.8855812 Z M148.056,51.7422599 L153.9738,51.7422599 L169.9662,88.3018123 L163.2168,88.3018123 L159.5292,79.5385704 L142.3446,79.5385704 L138.606,88.3018123 L132.0648,88.3018123 L148.056,51.7422599 L148.056,51.7422599 Z" id="Shape" fill="#00568A"></path>
                <path d="M195.6144,82.6500217 C199.977,82.6500217 202.6248,80.9384838 202.6248,77.6718195 L202.6248,77.5675451 C202.6248,74.508231 200.184,72.6924188 195.1482,72.6924188 L185.0238,72.6924188 L185.0238,82.6500217 L195.6144,82.6500217 L195.6144,82.6500217 Z M193.7472,67.3001155 C197.8476,67.3001155 200.5986,65.6922527 200.5986,62.372852 L200.5986,62.2697762 C200.5986,59.417213 198.315,57.6541372 194.2134,57.6541372 L185.0238,57.6541372 L185.0238,67.3001155 L193.7472,67.3001155 L193.7472,67.3001155 Z M178.7412,52.0023466 L195.0432,52.0023466 C199.1976,52.0023466 202.4694,53.1421733 204.5448,55.2174729 C206.1546,56.8241372 206.9856,58.7951625 206.9856,61.2330253 L206.9856,61.3361011 C206.9856,65.6922527 204.4932,68.0258412 201.7938,69.4257545 C206.0514,70.8778051 209.0118,73.3144693 209.0118,78.2423321 L209.0118,78.3454079 C209.0118,84.8271986 203.6622,88.3024116 195.5628,88.3024116 L178.7412,88.3024116 L178.7412,52.0023466 L178.7412,52.0023466 Z" id="Shape" fill="#00568A"></path>
                <path d="M248.5218,70.2563538 L248.5218,70.1514801 C248.5218,63.0997762 243.3816,57.2400361 236.1648,57.2400361 C228.948,57.2400361 223.9122,62.9961011 223.9122,70.0484043 L223.9122,70.1514801 C223.9122,77.2049819 229.0524,83.0641227 236.268,83.0641227 C243.4848,83.0641227 248.5218,77.3080578 248.5218,70.2563538 M217.2138,70.2563538 L217.2138,70.1514801 C217.2138,59.9361877 225.1062,51.3796968 236.268,51.3796968 C247.4316,51.3796968 255.2196,59.8331119 255.2196,70.0484043 L255.2196,70.1514801 C255.2196,80.3679711 247.3278,88.9238628 236.1648,88.9238628 C225.003,88.9238628 217.2138,80.4716462 217.2138,70.2563538" id="Shape" fill="#00568A"></path>
                <polygon id="Shape" fill="#00568A" points="265.551 52.0023466 272.3532 52.0023466 283.4118 69.1662671 294.4704 52.0023466 301.272 52.0023466 301.272 88.3024116 294.8862 88.3024116 294.8862 62.2691769 283.4118 79.3827581 283.2036 79.3827581 271.8336 62.3734513 271.8336 88.3024116 265.551 88.3024116"></polygon>
                <polygon id="Shape" fill="#00568A" points="313.1622 52.0023466 340.1082 52.0023466 340.1082 57.7056751 319.5492 57.7056751 319.5492 67.143704 337.7724 67.143704 337.7724 72.848231 319.5492 72.848231 319.5492 82.5978845 340.3692 82.5978845 340.3692 88.3024116 313.1622 88.3024116"></polygon>
                <polygon id="Shape" fill="#00568A" points="359.4756 57.9136245 347.9484 57.9136245 347.9484 52.0023466 377.4396 52.0023466 377.4396 57.9136245 365.9142 57.9136245 365.9142 88.3018123 359.4756 88.3018123 359.4756 57.9136245"></polygon>
                <polygon id="Shape" fill="#00568A" points="397.4826 73.9892563 383.0484 52.0017473 390.5772 52.0017473 400.7532 68.0779783 411.0324 52.0017473 418.3536 52.0017473 403.92 73.8340433 403.92 88.3024116 397.4826 88.3024116 397.4826 73.9892563"></polygon>
                <polygon id="Shape" fill="#00568A" points="435.6432 69.8404549 422.9226 52.0023466 430.4508 52.0023466 439.485 65.0174657 448.5714 52.0023466 455.8914 52.0023466 443.2242 69.7373791 456.411 88.3018123 448.8828 88.3018123 439.3296 74.5591697 429.7248 88.3018123 422.4042 88.3018123 435.6432 69.8404549"></polygon>
                <polygon id="Shape" fill="#00568A" points="462.0036 53.7324621 458.5878 53.7324621 458.5878 51.9801733 467.3256 51.9801733 467.3256 53.7324621 463.911 53.7324621 463.911 62.7342166 462.0036 62.7342166"></polygon>
                <polygon id="Shape" fill="#00568A" points="468.945 51.9807726 470.9598 51.9807726 474.237 57.0650469 477.5124 51.9807726 479.5272 51.9807726 479.5272 62.7348159 477.6354 62.7348159 477.6354 55.0233069 474.237 60.0925993 474.1746 60.0925993 470.8056 55.05387 470.8056 62.7348159 468.945 62.7348159 468.945 51.9807726"></polygon>
                <path d="M0.3066,36.4690614 C39.1632,42.608065 69.7746,67.1694729 77.4132,98.3499061 L77.4132,36.4690614 L0.3066,36.4690614 L0.3066,36.4690614 Z" id="Shape" fill="url(#linearGradient-1)"></path>
                <g id="Clipped" transform="translate(0.000000, 35.956679)">
                    <mask id="mask-3" fill="white">
                        <use xlink:href="#path-2"></use>
                    </mask>
                    <g id="Shape"></g>
                    <polygon id="Shape" fill="url(#linearGradient-4)" mask="url(#mask-3)" points="43.1532 -37.7539134 0.3066 0.512382671 65.3502 73.1664477 108.1974 34.8995523 43.1532 -37.7539134"></polygon>
                </g>
                <path d="M77.412,36.4708592 L262.5816,36.4708592 C169.2636,32.9051552 95.7576,18.6309531 77.412,0.517776173 L77.412,36.4708592 L77.412,36.4708592 Z" id="Shape" fill="url(#linearGradient-5)"></path>
                <g id="Clipped" transform="translate(77.400000, 0.000000)">
                    <mask id="mask-7" fill="white">
                        <use xlink:href="#path-6"></use>
                    </mask>
                    <g id="Shape"></g>
                    <polygon id="Shape" fill="url(#linearGradient-8)" mask="url(#mask-7)" points="58.9914 122.502606 184.8078 36.4564765 109.0476 -74.0521805 -16.7682 11.9939495 58.9914 122.502606"></polygon>
                </g>
                <path d="M0.3066,36.4684621 L77.412,36.4684621 L77.412,0.517776173 C69.7734,18.6297545 39.1632,32.9033574 0.3066,36.4684621" id="Shape" fill="#70034B"></path>
            </g>
        </g>
    </g>
</svg>