<?xml version="1.0" encoding="UTF-8" standalone="no"?>
<svg width="23px" height="30px" viewBox="0 0 23 30" version="1.1" xmlns="http://www.w3.org/2000/svg" xmlns:xlink="http://www.w3.org/1999/xlink">
    <!-- Generator: sketchtool 39.1 (31720) - http://www.bohemiancoding.com/sketch -->
    <title>AF38404E-5171-48EB-82CA-3743E4B21D80</title>
    <desc>Created with sketchtool.</desc>
    <defs></defs>
    <g id="Desktop" stroke="none" stroke-width="1" fill="none" fill-rule="evenodd">
        <g id="3" transform="translate(-216.000000, -2804.000000)" fill="#005DA8">
            <g id="molecule10" transform="translate(216.000000, 2804.000000)">
                <path d="M18.2260443,17.2221234 L15.1098354,15.200962 C15.509788,14.060788 15.4195348,12.7872722 14.8400222,11.7064905 L17.3960063,9.42301266 C18.8001709,10.2989778 20.6713956,10.1280063 21.8919968,8.90733228 C23.3128291,7.48657278 23.3128291,5.18286076 21.8919968,3.76202848 C20.4710918,2.3411962 18.1672342,2.3411962 16.7465475,3.76202848 C15.6272627,4.88131329 15.3904209,6.5477943 16.0341297,7.89969937 L13.4778544,10.1835411 C12.2541962,9.33668987 10.6932532,9.18864557 9.35182911,9.74115506 L6.4040443,5.68463924 C7.46146203,4.29634177 7.35716139,2.30589557 6.08881329,1.0374019 C4.70561076,-0.345800633 2.46296519,-0.345800633 1.07968987,1.0374019 C-0.303585443,2.42067722 -0.303585443,4.66339557 1.07968987,6.0465981 C2.07291139,7.03981962 3.50881013,7.31967722 4.75175633,6.88689873 L7.69990506,10.9437785 C6.24406329,12.6513829 6.3216519,15.2183576 7.93587342,16.8325063 C7.96687975,16.8635127 7.99875949,16.8925538 8.03071203,16.9225411 L5.17449051,21.9355222 C3.98737025,21.6547911 2.68677848,21.9765728 1.7609557,22.9025411 C0.340123418,24.3234462 0.340123418,26.6273038 1.7609557,28.0479905 C3.18178797,29.4688228 5.48557278,29.4688228 6.90633228,28.0479905 C8.31231646,26.6421519 8.32621835,24.3721392 6.94949367,22.9480316 L9.80549684,17.9355601 C11.2397215,18.3473766 12.8433165,18.0067437 13.9959367,16.9141709 L17.1151297,18.9368608 C16.9159905,19.8616646 17.1748861,20.8655127 17.8936361,21.5841899 C19.0195443,22.7100981 20.8446234,22.7100981 21.9704589,21.5841899 C23.0962943,20.4585 23.0962943,18.6332753 21.9704589,17.5074399 C20.9497247,16.4870696 19.3540633,16.3917943 18.2260443,17.2221234 L18.2260443,17.2221234 Z M2.99356646,24.6672089 C2.9243481,24.7456709 2.8592057,24.8197658 2.79530063,24.8835981 C2.71567405,24.9631519 2.60686076,25.0601013 2.47184494,25.101807 C2.30225633,25.1541392 2.1289557,25.1080665 1.99612342,24.9752342 C1.6487943,24.6279778 1.78162658,23.9708766 2.30516772,23.4475538 C2.82885443,22.9238671 3.48566456,22.790962 3.83313924,23.1384367 C3.96589873,23.2710506 4.01197152,23.4444968 3.95956646,23.6141582 C3.91793354,23.7491741 3.82098418,23.8582785 3.74143038,23.9376139 C3.67752532,24.0013734 3.60343038,24.0665158 3.52489557,24.1357342 C3.43427848,24.2155063 3.34038608,24.2979715 3.24794937,24.3902627 C3.15558544,24.4826266 3.07326582,24.576519 2.99356646,24.6672089 L2.99356646,24.6672089 Z M17.2907595,4.30667722 C17.8143006,3.78313608 18.4712563,3.65015823 18.8185854,3.99756013 C18.9512722,4.13024684 18.9974905,4.30362025 18.9450127,4.47335443 C18.9033797,4.60844304 18.8063576,4.71747468 18.7268766,4.7969557 C18.6631171,4.86064241 18.5890222,4.92578481 18.5104146,4.99493038 C18.4197247,5.07477532 18.3259778,5.15716772 18.2334684,5.24953165 C18.1409589,5.34204114 18.0585665,5.43600633 17.9787215,5.5266962 C17.9097215,5.60501266 17.8443608,5.67932595 17.7807468,5.74308544 C17.701193,5.82263924 17.5921614,5.91958861 17.4571456,5.9612943 C17.2874114,6.01362658 17.1141835,5.9675538 16.9814241,5.83472152 C16.6343133,5.48731962 16.7671456,4.83014557 17.2907595,4.30667722 L17.2907595,4.30667722 Z M2.27976582,2.7551962 C2.21222152,2.83162025 2.14882595,2.90382278 2.08703165,2.96590823 C2.00966139,3.04327848 1.90354114,3.13753481 1.7719462,3.17836709 C1.60679747,3.22917089 1.43808228,3.18440823 1.30874367,3.05528797 C0.970585443,2.71705696 1.10014241,2.07735127 1.60992722,1.56771203 C2.11963924,1.05792722 2.7590538,0.928515823 3.09735759,1.26674684 C3.22662342,1.39601266 3.27167722,1.56480063 3.22050949,1.72987658 C3.17967722,1.86139873 3.08556646,1.96751899 3.00812342,2.04474367 C2.94596519,2.1069019 2.87376266,2.17044304 2.79733861,2.23747785 C2.70905063,2.31506646 2.61763291,2.39542089 2.52774367,2.48538291 C2.43770886,2.57541772 2.35728165,2.66698101 2.27976582,2.7551962 L2.27976582,2.7551962 Z M8.5862057,11.336962 C9.21164557,10.7114494 9.99612025,10.5527785 10.4111392,10.9677247 C10.5698101,11.1264684 10.6249082,11.3333956 10.5623861,11.5361741 C10.5123101,11.6976108 10.3966551,11.8276772 10.3015981,11.922807 C10.2253924,11.9990127 10.1367405,12.0765285 10.0429937,12.159212 C9.93483544,12.2546329 9.82274684,12.3529652 9.71225949,12.4633797 C9.60177215,12.5739399 9.50336709,12.6859557 9.40816456,12.7943323 C9.32548101,12.8880063 9.24767405,12.9766582 9.17154114,13.0527184 C9.07648418,13.1480665 8.94641772,13.2635032 8.78498101,13.3134335 C8.5823481,13.3759557 8.3753481,13.3210032 8.21645886,13.1622595 C7.80173101,12.7469494 7.96076582,11.9624747 8.5862057,11.336962 L8.5862057,11.336962 Z M18.7137025,19.0771171 C18.6505253,19.1401487 18.564057,19.2170823 18.4572089,19.2500538 C18.3228481,19.2914684 18.1857943,19.2550032 18.0803291,19.1498291 C17.8049842,18.8746297 17.9101582,18.3540728 18.32525,17.9391994 C18.7399051,17.5243259 19.260462,17.4190791 19.535807,17.6944968 C19.6408354,17.7995253 19.6773734,17.9368703 19.6359589,18.0714494 C19.6029873,18.1785158 19.5260538,18.2647658 19.4630949,18.3277247 C19.4125823,18.3780918 19.3539177,18.429769 19.2916867,18.4845759 C19.2200665,18.5476076 19.1455348,18.6131139 19.0723861,18.6862627 C18.9990918,18.7594842 18.9335854,18.8337247 18.8706994,18.9057816 C18.8157468,18.9680127 18.7640696,19.0266044 18.7137025,19.0771171 L18.7137025,19.0771171 Z" id="Shape"></path>
            </g>
        </g>
    </g>
</svg>