<?xml version="1.0" encoding="UTF-8" standalone="no"?>
<svg width="264px" height="24px" viewBox="0 0 264 24" version="1.1" xmlns="http://www.w3.org/2000/svg" xmlns:xlink="http://www.w3.org/1999/xlink">
    <!-- Generator: sketchtool 39.1 (31720) - http://www.bohemiancoding.com/sketch -->
    <title>0C7766D1-7A71-4DC6-8ED4-0D5DBEB15182</title>
    <desc>Created with sketchtool.</desc>
    <defs>
        <path d="M27.5529297,0.041015625 C26.3282031,0.102265625 25.318125,0.132617188 24.4915234,0.132617188 L24.4915234,0.132617188 C23.5730469,0.132617188 22.5017187,0.102265625 21.4604687,0.041015625 L21.4604687,0.041015625 L14.0213281,16.7510547 L6.82691406,0.041015625 C5.60246094,0.102265625 4.68398437,0.132617188 3.94925781,0.132617188 L3.94925781,0.132617188 C3.21453125,0.132617188 1.71445312,0.071640625 0.673476562,0.041015625 L0.673476562,0.041015625 L0.673476562,0.9559375 C2.69390625,1.10851563 3.03050781,1.41339844 3.03050781,3.36492188 L3.03050781,3.36492188 C3.03050781,4.27957031 2.96953125,5.28582031 2.93890625,6.23136719 L2.93890625,6.23136719 L2.63265625,17.635625 C2.57140625,19.9223828 2.35703125,20.593125 0,20.8375781 L0,20.8375781 L0,21.7519531 C1.07160156,21.7216016 2.14292969,21.6603516 3.33703125,21.6603516 L3.33703125,21.6603516 C4.53085937,21.6603516 5.60246094,21.7216016 6.70441406,21.7519531 L6.70441406,21.7519531 L6.70441406,20.8375781 C4.71460937,20.7763281 4.19425781,20.0749609 4.19425781,18.5502734 L4.19425781,18.5502734 L4.19425781,3.88308594 L4.25550781,3.88308594 L12.27625,21.9655078 L13.164375,21.9655078 L21.4604687,2.78550781 L21.5219922,2.78550781 L21.7057422,14.4033203 C21.7363672,15.5922266 21.7669922,16.8120312 21.7669922,17.8795312 L21.7669922,17.8795312 C21.7669922,20.4104687 21.3076172,20.6847266 19.1950391,20.8375781 L19.1950391,20.8375781 L19.1950391,21.7519531 C20.7260156,21.7216016 22.5017187,21.6603516 23.6649219,21.6603516 L23.6649219,21.6603516 C24.828125,21.6603516 26.6041016,21.7216016 28.1039062,21.7519531 L28.1039062,21.7519531 L28.1039062,20.8375781 C26.2059766,20.7457031 25.59375,20.3494922 25.563125,18.1537891 L25.563125,18.1537891 L25.379375,8.06066406 C25.34875,6.53625 25.318125,4.55410156 25.318125,3.33457031 L25.318125,3.33457031 C25.318125,1.44375 26.0528516,0.9559375 27.5529297,0.9559375 L27.5529297,0.9559375 L27.5529297,0.041015625 Z" id="path-1"></path>
        <path d="M8.90148437,0.041015625 C7.27917969,0.041015625 5.65660156,0.132617188 4.03375,0.132617188 L4.03375,0.132617188 C2.74832031,0.132617188 1.24796875,0.102265625 0.206992187,0.041015625 L0.206992187,0.041015625 L0.206992187,0.9559375 C2.19734375,0.9865625 2.74832031,1.71828125 2.74832031,3.42589844 L2.74832031,3.42589844 L2.74832031,18.3673438 C2.74832031,20.0749609 2.19734375,20.8069531 0.206992187,20.8375781 L0.206992187,20.8375781 L0.206992187,21.7519531 C2.65617187,21.6909766 3.69742187,21.6603516 4.676875,21.6603516 L4.676875,21.6603516 C5.65660156,21.6603516 6.69730469,21.6909766 9.14675781,21.7519531 L9.14675781,21.7519531 L9.14675781,20.8375781 C7.15667969,20.8069531 6.60570312,20.0749609 6.60570312,18.3673438 L6.60570312,18.3673438 L6.60570312,11.7807813 C7.09542969,11.8417578 8.16675781,11.8723828 9.05460937,11.8723828 L9.05460937,11.8723828 C14.6879687,11.8723828 17.0146484,9.73792969 17.0146484,6.20074219 L17.0146484,6.20074219 C17.0146484,2.69417969 14.9020703,0.041015625 8.90148437,0.041015625 L8.90148437,0.041015625 Z M6.60570312,10.5002734 L6.60570312,1.07789063 C7.03390625,0.9865625 7.37105469,0.9559375 7.92175781,0.9559375 L7.92175781,0.9559375 C11.9016406,0.9559375 13.0344922,4.24894531 13.0344922,6.505625 L13.0344922,6.505625 C13.0344922,9.46339844 11.3812891,10.7135547 8.62613281,10.7135547 L8.62613281,10.7135547 C8.01363281,10.7135547 7.18730469,10.6222266 6.60570312,10.5002734 L6.60570312,10.5002734 Z" id="path-3"></path>
        <path d="M9.99359375,0.041015625 C8.00378906,0.041015625 5.98308594,0.132617188 3.99300781,0.132617188 L3.99300781,0.132617188 C2.86070313,0.132617188 1.63570313,0.071640625 0.196875,0.041015625 L0.196875,0.041015625 L0.196875,0.9559375 C2.18667969,0.9865625 2.73792969,1.71828125 2.73792969,3.42589844 L2.73792969,3.42589844 L2.73792969,18.3673437 C2.73792969,20.0749609 2.18667969,20.8069531 0.196875,20.8375781 L0.196875,20.8375781 L0.196875,21.7519531 C2.64632813,21.6909766 3.68703125,21.6603516 4.66675781,21.6603516 L4.66675781,21.6603516 C5.64621094,21.6603516 6.6871875,21.6909766 9.13636719,21.7519531 L9.13636719,21.7519531 L9.13636719,20.8375781 C7.14628906,20.8069531 6.59558594,20.0749609 6.59558594,18.3673437 L6.59558594,18.3673437 L6.59558594,11.62875 C8.64636719,11.6591016 9.07511719,11.8723828 10.3610938,14.58625 L10.3610938,14.58625 L11.5549219,17.1171875 C13.269375,20.7457031 14.9529297,22.1484375 19.0249609,22.1484375 L19.0249609,22.1484375 C19.5146875,22.1484375 19.9737891,22.1178125 20.4331641,22.0874609 L20.4331641,22.0874609 L20.4331641,21.3554687 C18.6878125,21.1115625 17.9533594,20.5324219 16.5757813,18.0014844 L16.5757813,18.0014844 L12.7490234,10.9880859 C15.7185547,10.0734375 17.0042578,7.75578125 17.0042578,5.68230469 L17.0042578,5.68230469 C17.0042578,2.69417969 15.3204297,0.041015625 9.99359375,0.041015625 L9.99359375,0.041015625 Z M6.59558594,10.5002734 L6.59558594,1.07789063 C7.02378906,0.9865625 7.36066406,0.9559375 7.91191406,0.9559375 L7.91191406,0.9559375 C11.8915234,0.9559375 13.024375,4.27957031 13.024375,6.505625 L13.024375,6.505625 C13.024375,9.46339844 11.3711719,10.7135547 8.61601563,10.7135547 L8.61601563,10.7135547 C8.00378906,10.7135547 7.17691406,10.6222266 6.59558594,10.5002734 L6.59558594,10.5002734 Z" id="path-5"></path>
    </defs>
    <g id="Desktop" stroke="none" stroke-width="1" fill="none" fill-rule="evenodd">
        <g id="3" transform="translate(-438.000000, -2270.000000)">
            <g id="Monograph" transform="translate(438.000000, 2263.000000)">
                <g id="Page-1" transform="translate(0.000000, 8.000000)">
                    <g id="Group-3">
                        <mask id="mask-2" fill="white">
                            <use xlink:href="#path-1"></use>
                        </mask>
                        <g id="Clip-2"></g>
                        <polygon id="Fill-1" fill="#D8AA27" mask="url(#mask-2)" points="-4.27574219 -4.23445313 32.3796484 -4.23445313 32.3796484 26.24125 -4.27574219 26.24125"></polygon>
                    </g>
                    <g id="Group-6" transform="translate(30.898438, 0.000000)">
                        <mask id="mask-4" fill="white">
                            <use xlink:href="#path-3"></use>
                        </mask>
                        <g id="Clip-5"></g>
                        <polygon id="Fill-4" fill="#D8AA27" mask="url(#mask-4)" points="-4.06847656 -4.23445313 21.2901172 -4.23445313 21.2901172 26.0276953 -4.06847656 26.0276953"></polygon>
                    </g>
                    <g id="Group-9" transform="translate(49.492188, 0.000000)">
                        <mask id="mask-6" fill="white">
                            <use xlink:href="#path-5"></use>
                        </mask>
                        <g id="Clip-8"></g>
                        <polygon id="Fill-7" fill="#D8AA27" mask="url(#mask-6)" points="-4.07886719 -4.23445313 24.7089063 -4.23445313 24.7089063 26.4241797 -4.07886719 26.4241797"></polygon>
                    </g>
                </g>
                <text id="MONOGRAPH" font-family="RobotoCondensed-Regular, Roboto Condensed" font-size="30" font-style="condensed" font-weight="normal" line-spacing="31" fill="#FFFFFF">
                    <tspan x="76.5" y="29">MONOGRAPH</tspan>
                </text>
                <text id="℞" font-family="LucidaGrande, Lucida Grande" font-size="30" font-weight="normal" fill="#D7AA28">
                    <tspan x="245.015137" y="29">℞</tspan>
                </text>
            </g>
        </g>
    </g>
</svg>