<?xml version="1.0" encoding="UTF-8" standalone="no"?>
<svg width="448px" height="125px" viewBox="0 0 448 125" version="1.1" xmlns="http://www.w3.org/2000/svg" xmlns:xlink="http://www.w3.org/1999/xlink">
    <!-- Generator: sketchtool 39.1 (31720) - http://www.bohemiancoding.com/sketch -->
    <title>2A341477-3DC3-48E1-B163-C69D1192193B</title>
    <desc>Created with sketchtool.</desc>
    <defs>
        <polygon id="path-1" points="447.427299 62.5342009 447.427299 125.068402 0 125.068402 0 62.5342009 0 0 447.427299 0"></polygon>
    </defs>
    <g id="Desktop" stroke="none" stroke-width="1" fill="none" fill-rule="evenodd">
        <g id="3" transform="translate(-346.000000, -2307.000000)">
            <g id="Page-1" transform="translate(346.000000, 2307.000000)">
                <mask id="mask-2" fill="white">
                    <use xlink:href="#path-1"></use>
                </mask>
                <g id="Clip-2"></g>
                <path d="M86.2233668,65.0585057 L86.2233668,64.9602604 C86.2233668,55.3346189 93.445784,47.4486377 103.722361,47.4486377 C109.977148,47.4486377 113.756431,49.6244113 117.005078,52.7227321 L113.175372,57.1246 C110.459763,54.6085623 107.552067,52.9168264 103.67434,52.9168264 C97.1794471,52.9168264 92.4757519,58.2364491 92.4757519,64.8644113 L92.4757519,64.9602604 C92.4757519,71.5882226 97.1794471,77.0060906 103.67434,77.0060906 C107.842597,77.0060906 110.510185,75.3143547 113.41788,72.6042226 L117.247586,76.4741283 C113.70841,80.1523358 109.830682,82.4742792 103.479853,82.4742792 C93.5922492,82.4742792 86.2233668,74.7823925 86.2233668,65.0585057" id="Fill-1" fill="#FFFFFF" mask="url(#mask-2)"></path>
                <path d="M146.478206,68.4446132 L140.612394,54.8987453 L134.797003,68.4446132 L146.478206,68.4446132 Z M137.947206,47.7867453 L143.472067,47.7867453 L158.401918,81.8946321 L152.101511,81.8946321 L148.658378,73.7187075 L132.614431,73.7187075 L129.125677,81.8946321 L123.017356,81.8946321 L137.947206,47.7867453 Z" id="Fill-3" fill="#FFFFFF" mask="url(#mask-2)"></path>
                <path d="M182.350905,76.6205377 C186.423119,76.6205377 188.896221,75.0246509 188.896221,71.9766509 L188.896221,71.8784057 C188.896221,69.0245 186.617606,67.3327642 181.916312,67.3327642 L172.4609,67.3327642 L172.4609,76.6205377 L182.350905,76.6205377 Z M180.605328,62.3006887 C184.435034,62.3006887 187.004178,60.8006509 187.004178,57.7047264 L187.004178,57.6088774 C187.004178,54.9466698 184.872028,53.3028585 181.042322,53.3028585 L172.4609,53.3028585 L172.4609,62.3006887 L180.605328,62.3006887 Z M166.597488,48.0287642 L181.817868,48.0287642 C185.695595,48.0287642 188.749756,49.0926887 190.68982,51.0288396 C192.192889,52.5288774 192.968435,54.366783 192.968435,56.6408019 L192.968435,56.7366509 C192.968435,60.8006509 190.639397,62.9788208 188.120675,64.2847642 C192.094445,65.6386321 194.858076,67.9126509 194.858076,72.5086132 L194.858076,72.6044623 C194.858076,78.6525377 189.863852,81.8946321 182.302884,81.8946321 L166.597488,81.8946321 L166.597488,48.0287642 Z" id="Fill-4" fill="#FFFFFF" mask="url(#mask-2)"></path>
                <path d="M231.747388,65.0585057 L231.747388,64.9602604 C231.747388,58.3826189 226.94765,52.9168264 220.210249,52.9168264 C213.472848,52.9168264 208.771554,58.2867698 208.771554,64.8644113 L208.771554,64.9602604 C208.771554,71.5402981 213.568891,77.0060906 220.306292,77.0060906 C227.043693,77.0060906 231.747388,71.6361472 231.747388,65.0585057 M202.516768,65.0585057 L202.516768,64.9602604 C202.516768,55.4304679 209.88565,47.4486377 220.306292,47.4486377 C230.729335,47.4486377 237.999773,55.3346189 237.999773,64.8644113 L237.999773,64.9602604 C237.999773,74.4924491 230.633292,82.4742792 220.210249,82.4742792 C209.787206,82.4742792 202.516768,74.5882981 202.516768,65.0585057" id="Fill-5" fill="#FFFFFF" mask="url(#mask-2)"></path>
                <polygon id="Fill-6" fill="#FFFFFF" mask="url(#mask-2)" points="247.64631 48.029483 253.997139 48.029483 264.321738 64.0410679 274.646337 48.029483 280.997166 48.029483 280.997166 81.8929547 275.03531 81.8929547 275.03531 57.6072 264.321738 73.5732566 264.127251 73.5732566 253.512123 57.7054453 253.512123 81.8929547 247.64631 81.8929547"></polygon>
                <polygon id="Fill-7" fill="#FFFFFF" mask="url(#mask-2)" points="292.099711 48.029483 317.258118 48.029483 317.258118 53.3491057 298.063968 53.3491057 298.063968 62.1552377 315.075545 62.1552377 315.075545 67.4772566 298.063968 67.4772566 298.063968 76.5709358 317.500626 76.5709358 317.500626 81.8929547 292.099711 81.8929547"></polygon>
                <polygon id="Fill-8" fill="#FFFFFF" mask="url(#mask-2)" points="335.340572 53.5443981 324.578979 53.5443981 324.578979 48.0306811 352.112043 48.0306811 352.112043 53.5443981 341.35285 53.5443981 341.35285 81.8941528 335.340572 81.8941528"></polygon>
                <polygon id="Fill-9" fill="#FFFFFF" mask="url(#mask-2)" points="370.825979 68.5411811 357.351176 48.029483 364.379107 48.029483 373.880139 63.0274642 383.477214 48.029483 390.313059 48.029483 376.835856 68.3974075 376.835856 81.8929547 370.825979 81.8929547"></polygon>
                <polygon id="Fill-10" fill="#FFFFFF" mask="url(#mask-2)" points="406.453048 64.6710358 394.577358 48.0292434 401.605289 48.0292434 410.040246 60.1709226 418.523225 48.0292434 425.35907 48.0292434 413.531401 64.5751868 425.844086 81.8927151 418.813754 81.8927151 409.896182 69.0729038 400.928187 81.8927151 394.092342 81.8927151"></polygon>
                <polygon id="Fill-11" fill="#FFFFFF" mask="url(#mask-2)" points="431.066412 49.6438208 427.877791 49.6438208 427.877791 48.0095943 436.034225 48.0095943 436.034225 49.6438208 432.848005 49.6438208 432.848005 58.0425943 431.066412 58.0425943"></polygon>
                <polygon id="Fill-12" fill="#FFFFFF" mask="url(#mask-2)" points="437.546898 48.0095943 439.426936 48.0095943 442.488299 52.7541226 445.544861 48.0095943 447.427299 48.0095943 447.427299 58.0425943 445.660112 58.0425943 445.660112 50.8467264 442.488299 55.5768774 442.428273 55.5768774 439.285273 50.8754811 439.285273 58.0425943 437.546898 58.0425943"></polygon>
                <path d="M0,34.0518151 C36.2777594,39.7787962 64.346262,62.1787208 71.4750374,91.2665132 L71.4750374,34.0518151 L0,34.0518151 Z" id="Fill-13" fill="#FFFFFF" mask="url(#mask-2)"></path>
                <path d="M72.5034155,0 L72.5034155,33.0271887 L244.873075,33.0271887 C157.748587,29.7012264 89.6326455,16.8957925 72.5034155,0" id="Fill-14" fill="#FFFFFF" mask="url(#mask-2)"></path>
                <path d="M0,33.0259906 L71.4750374,33.0259906 L71.4750374,0.00119811321 C64.343861,16.8969906 36.2777594,29.7000283 0,33.0259906" id="Fill-15" fill="#FFFFFF" mask="url(#mask-2)"></path>
                <path d="M174.741436,125.069121 C173.320003,123.564291 171.768912,121.930064 170.174602,118.275819 C169.18296,115.953875 167.718307,111.568781 167.718307,106.582234 C167.718307,103.958366 168.107281,100.733045 169.442275,97.2513283 C171.166243,92.7368377 172.931029,90.7168189 174.698217,88.6944038 L174.698217,91.1026113 C173.622537,92.5643094 172.198703,94.4573283 170.906928,98.7992906 C170.088163,101.420762 169.658372,104.087762 169.658372,106.841026 C169.658372,109.419366 170.217821,112.687819 170.906928,115.136762 C172.069045,119.136064 173.665757,121.199215 174.741436,122.617781 L174.741436,125.069121 Z" id="Fill-16" fill="#FFFFFF" mask="url(#mask-2)"></path>
                <path d="M178.878239,102.926791 C178.878239,101.853281 178.878239,97.4657906 183.831645,97.4657906 C188.657795,97.4657906 188.830672,101.594489 188.830672,103.269451 L188.830672,105.16247 L187.020265,105.16247 C187.020265,102.713526 187.020265,102.152809 186.76095,101.292564 C186.374378,99.9602623 185.425955,99.0568849 183.918083,99.0568849 C180.731864,99.0568849 180.731864,102.282206 180.731864,103.053791 L180.731864,112.34396 C180.731864,114.622772 180.731864,117.50064 184.13418,117.50064 C187.149923,117.50064 187.149923,114.749772 187.149923,113.975791 L187.149923,110.836734 L189.046768,110.836734 L189.046768,113.63313 C189.046768,115.094828 189.046768,119.22113 183.788426,119.22113 C181.161656,119.22113 180.040356,117.673168 179.867479,117.414375 C178.921458,116.08447 178.878239,114.320847 178.878239,112.902281 L178.878239,102.926791 Z" id="Fill-17" fill="#FFFFFF" mask="url(#mask-2)"></path>
                <path d="M201.110461,107.096943 C200.421355,107.571396 200.248478,107.65766 198.52451,108.601774 C196.327531,109.850208 194.519526,110.880585 194.519526,114.062774 C194.519526,115.783264 195.295071,117.374358 197.319173,117.374358 C199.216018,117.374358 200.248478,116.255321 201.110461,115.308811 L201.110461,107.096943 Z M193.571103,104.130415 C193.571103,100.81883 193.571103,97.3371132 198.52451,97.3371132 C202.920868,97.3371132 202.920868,100.732566 202.920868,102.067264 L202.920868,116.600377 C202.920868,117.331226 203.566756,117.374358 204.212643,117.374358 L204.212643,119.092453 C202.315798,119.092453 201.497034,118.83366 201.110461,117.415094 C200.162039,118.145943 198.956702,119.092453 196.932601,119.092453 C193.873638,119.092453 192.6659,116.684245 192.6659,114.019642 C192.6659,109.89334 195.208633,108.388509 197.44883,107.22634 C199.645809,106.066566 199.948344,105.93717 201.067242,105.076925 L201.067242,102.582453 C201.067242,100.648698 200.853547,99.0576038 198.308413,99.0576038 C195.422328,99.0576038 195.422328,101.250151 195.422328,104.130415 L193.571103,104.130415 Z" id="Fill-18" fill="#FFFFFF" mask="url(#mask-2)"></path>
                <path d="M216.190859,102.883898 C216.190859,100.605087 215.415313,98.9301245 213.304773,98.9301245 C211.624025,98.9301245 209.856837,100.003634 209.856837,102.840766 L209.856837,113.247577 C209.856837,116.297974 211.840121,117.587143 213.304773,117.587143 C213.99388,117.587143 214.639768,117.330747 215.11518,116.856294 C216.190859,115.825917 216.190859,114.234823 216.190859,113.417709 L216.190859,102.883898 Z M209.813618,88.7389736 L209.813618,99.315917 C210.461907,98.4988038 211.451148,97.209634 213.777784,97.209634 C218.001265,97.209634 218.001265,101.4222 218.001265,102.970162 L218.001265,114.062294 C218.001265,117.244483 215.974763,119.22137 213.434431,119.22137 C211.280672,119.22137 210.332249,117.9322 209.900057,117.330747 L209.900057,119.091974 L208.005613,119.091974 L208.005613,88.7389736 L209.813618,88.7389736 Z" id="Fill-19" fill="#FFFFFF" mask="url(#mask-2)"></path>
                <path d="M231.271256,102.883898 C231.271256,102.066785 231.271256,99.1433887 228.212294,99.1433887 C224.850796,99.1433887 224.850796,101.980521 224.850796,103.399087 L224.850796,113.84903 C224.850796,114.579879 224.850796,117.414615 227.952978,117.414615 C229.720165,117.414615 231.271256,116.513634 231.271256,113.676502 L231.271256,102.883898 Z M222.999572,102.541238 C222.999572,98.1968792 226.231411,97.336634 228.169074,97.336634 C233.124882,97.336634 233.124882,101.335936 233.124882,102.670634 L233.124882,112.945653 C233.124882,114.663747 232.995224,115.955313 232.176459,117.158219 C230.798245,119.178238 228.469208,119.178238 227.996197,119.178238 C227.609625,119.178238 226.361069,119.178238 225.110112,118.447389 C223.258887,117.414615 222.999572,115.739653 222.999572,113.892162 L222.999572,102.541238 Z" id="Fill-20" fill="#FFFFFF" mask="url(#mask-2)"></path>
                <polygon id="Fill-21" fill="#FFFFFF" mask="url(#mask-2)" points="237.778635 97.4665094 246.781925 97.4665094 246.781925 98.9282075 239.286506 117.288094 246.781925 117.288094 246.781925 119.092453 237.175966 119.092453 237.175966 117.501358 244.584947 99.2732642 237.778635 99.2732642"></polygon>
                <path d="M258.674422,107.096943 C257.985316,107.571396 257.812439,107.65766 256.088471,108.601774 C253.891492,109.850208 252.083487,110.880585 252.083487,114.062774 C252.083487,115.783264 252.859032,117.374358 254.883134,117.374358 C256.779979,117.374358 257.812439,116.255321 258.674422,115.308811 L258.674422,107.096943 Z M251.135064,104.130415 C251.135064,100.81883 251.135064,97.3371132 256.088471,97.3371132 C260.484829,97.3371132 260.484829,100.732566 260.484829,102.067264 L260.484829,116.600377 C260.484829,117.331226 261.130717,117.374358 261.776604,117.374358 L261.776604,119.092453 C259.879759,119.092453 259.060995,118.83366 258.674422,117.415094 C257.726,118.145943 256.520663,119.092453 254.496561,119.092453 C251.435198,119.092453 250.229861,116.684245 250.229861,114.019642 C250.229861,109.89334 252.772594,108.388509 255.012791,107.22634 C257.20977,106.066566 257.512305,105.93717 258.631203,105.076925 L258.631203,102.582453 C258.631203,100.648698 258.415107,99.0576038 255.872374,99.0576038 C252.98869,99.0576038 252.98869,101.250151 252.98869,104.130415 L251.135064,104.130415 Z" id="Fill-22" fill="#FFFFFF" mask="url(#mask-2)"></path>
                <path d="M267.507957,99.5303792 C267.808091,99.0151906 268.153845,98.4568698 269.015829,97.8961528 C269.704936,97.4672283 270.56692,97.2084358 271.512941,97.2084358 C272.118011,97.2084358 272.979995,97.3378321 273.75554,97.7667566 C275.606765,98.8426623 275.606765,100.862681 275.606765,101.722926 L275.606765,119.093172 L273.798759,119.093172 L273.798759,101.766058 C273.798759,99.4872472 272.331706,98.7995302 271.126369,98.7995302 C270.05069,98.7995302 268.97261,99.3171151 268.283503,100.0887 C267.85131,100.603889 267.680834,101.035209 267.507957,101.507266 L267.507957,119.093172 L265.697551,119.093172 L265.697551,97.4240962 L267.507957,97.4240962 L267.507957,99.5303792 Z" id="Fill-23" fill="#FFFFFF" mask="url(#mask-2)"></path>
                <path d="M281.124422,91.9199642 L283.018866,91.9199642 L283.018866,97.4240962 L286.293925,97.4240962 L286.293925,99.1853226 L283.018866,99.1853226 L283.018866,115.395794 C283.018866,116.555568 283.018866,117.458945 284.613176,117.458945 C285.086187,117.458945 285.820914,117.415813 286.293925,117.375077 L286.293925,119.05004 C285.648037,119.136304 285.00215,119.179436 284.356262,119.179436 C281.813529,119.179436 281.167642,118.276058 281.167642,116.641832 L281.167642,99.1853226 L278.841005,99.1853226 L278.841005,97.4240962 L281.124422,97.4240962 L281.124422,91.9199642 Z" id="Fill-24" fill="#FFFFFF" mask="url(#mask-2)"></path>
                <path d="M289.568984,97.4231377 L291.37939,97.4231377 L291.37939,119.092213 L289.568984,119.092213 L289.568984,97.4231377 Z M289.568984,91.5763453 L291.37939,91.5763453 L291.37939,94.9310623 L289.568984,94.9310623 L289.568984,91.5763453 Z" id="Fill-25" fill="#FFFFFF" mask="url(#mask-2)"></path>
                <path d="M298.661834,99.5303792 C298.961968,99.0151906 299.307722,98.4568698 300.169706,97.8961528 C300.858813,97.4672283 301.720797,97.2084358 302.666818,97.2084358 C303.271888,97.2084358 304.133872,97.3378321 304.909417,97.7667566 C306.760642,98.8426623 306.760642,100.862681 306.760642,101.722926 L306.760642,119.093172 L304.952636,119.093172 L304.952636,101.766058 C304.952636,99.4872472 303.485583,98.7995302 302.280246,98.7995302 C301.204567,98.7995302 300.126487,99.3171151 299.43738,100.0887 C299.005187,100.603889 298.834711,101.035209 298.661834,101.507266 L298.661834,119.093172 L296.851428,119.093172 L296.851428,97.4240962 L298.661834,97.4240962 L298.661834,99.5303792 Z" id="Fill-26" fill="#FFFFFF" mask="url(#mask-2)"></path>
                <path d="M311.802888,97.4231377 L313.613294,97.4231377 L313.613294,119.092213 L311.802888,119.092213 L311.802888,97.4231377 Z M311.802888,91.5763453 L313.613294,91.5763453 L313.613294,94.9310623 L311.802888,94.9310623 L311.802888,91.5763453 Z" id="Fill-27" fill="#FFFFFF" mask="url(#mask-2)"></path>
                <path d="M327.14092,102.883898 C327.14092,100.605087 326.365374,98.9301245 324.254834,98.9301245 C322.574086,98.9301245 320.806898,100.003634 320.806898,102.840766 L320.806898,113.247577 C320.806898,116.297974 322.790182,117.587143 324.254834,117.587143 C324.943941,117.587143 325.589829,117.330747 326.06284,116.856294 C327.14092,115.825917 327.14092,114.234823 327.14092,113.417709 L327.14092,102.883898 Z M320.763679,88.7389736 L320.763679,99.315917 C321.411968,98.4988038 322.401209,97.209634 324.727845,97.209634 C328.951326,97.209634 328.951326,101.4222 328.951326,102.970162 L328.951326,114.062294 C328.951326,117.244483 326.924824,119.22137 324.384492,119.22137 C322.230733,119.22137 321.28231,117.9322 320.850118,117.330747 L320.850118,119.091974 L318.955674,119.091974 L318.955674,88.7389736 L320.763679,88.7389736 Z" id="Fill-28" fill="#FFFFFF" mask="url(#mask-2)"></path>
                <path d="M333.477342,88.6522302 C334.898775,90.1570604 336.449866,91.7912868 338.044176,95.4886642 C339.035818,97.8106075 340.500471,102.195702 340.500471,107.139117 C340.500471,109.849249 340.068278,113.031438 338.776503,116.513155 C337.095754,120.984513 335.287749,123.047664 333.520561,125.026947 L333.520561,122.61874 C334.596241,121.157042 336.020075,119.264023 337.31185,114.92206 C338.130615,112.343721 338.560406,109.633589 338.560406,106.925853 C338.560406,104.345117 338.000957,101.033532 337.31185,98.6277208 C336.149733,94.5852868 334.553021,92.5221358 333.477342,91.1467019 L333.477342,88.6522302 Z" id="Fill-29" fill="#FFFFFF" mask="url(#mask-2)"></path>
                <path d="M358.138727,92.9158358 L358.138727,97.5884774 L359.994754,97.5884774 L359.994754,100.245892 L358.138727,100.245892 L358.138727,115.148025 C358.138727,116.595345 358.623743,116.755892 360.237262,116.676817 L360.237262,119.132949 C359.67061,119.214421 359.106358,119.334232 358.381235,119.334232 C355.110979,119.334232 354.868471,118.085798 354.868471,115.790213 L354.868471,100.245892 L352.933209,100.245892 L352.933209,97.5884774 L354.909289,97.5884774 L354.909289,92.9158358 L358.138727,92.9158358 Z" id="Fill-30" fill="#FFFFFF" mask="url(#mask-2)"></path>
                <path d="M368.710636,108.380602 C368.388893,108.66096 367.418861,109.346281 366.732155,109.789583 C365.805342,110.434168 365.562834,111.078753 365.562834,112.003696 L365.562834,114.17947 C365.562834,115.308092 365.562834,116.757809 366.85461,116.757809 C368.710636,116.757809 368.710636,113.978187 368.710636,113.453413 L368.710636,108.380602 Z M362.575904,101.814942 C362.575904,100.607243 362.575904,97.1446962 367.257989,97.1446962 C371.940075,97.1446962 371.940075,100.365225 371.940075,101.776602 L371.940075,115.427904 C371.940075,116.757809 371.980893,117.924772 372.542743,119.091734 L369.073198,119.091734 C368.751455,118.327338 368.710636,118.166791 368.508947,117.361658 C367.903877,118.288998 367.178754,119.333753 365.401963,119.333753 C362.333396,119.333753 362.333396,116.757809 362.333396,115.710658 L362.333396,111.883885 C362.333396,110.314357 362.333396,109.106658 364.311877,107.855828 L367.418861,105.92447 C368.105567,105.481168 368.710636,104.877319 368.710636,104.676036 L368.710636,101.453111 C368.710636,100.727055 368.588182,99.8021113 367.298807,99.8021113 C365.886979,99.8021113 365.886979,100.808526 365.886979,101.412375 L365.886979,104.434017 L362.575904,104.434017 L362.575904,101.814942 Z" id="Fill-31" fill="#FFFFFF" mask="url(#mask-2)"></path>
                <path d="M382.267075,101.896413 C382.267075,101.251828 382.267075,100.084866 380.855246,100.084866 C379.280144,100.084866 379.160091,101.613658 379.160091,102.179168 L379.160091,114.220206 C379.160091,115.308092 379.160091,116.515791 380.691973,116.515791 C381.741241,116.515791 382.267075,115.751394 382.267075,114.663508 L382.267075,101.896413 Z M375.930652,90.6605075 L379.160091,90.6605075 L379.160091,99.0377151 C379.443417,98.5536774 380.250176,97.2237717 382.267075,97.2237717 C383.477214,97.2237717 384.447246,97.7485453 384.970679,98.5536774 C385.455695,99.3180736 385.537332,100.245413 385.537332,100.930734 L385.537332,114.5413 C385.537332,115.348828 385.537332,119.45596 381.580369,119.45596 C379.361781,119.45596 378.756711,118.006243 378.473385,117.280187 C378.029187,118.046979 377.947551,118.248262 377.748262,119.09413 L375.930652,119.09413 L375.930652,90.6605075 Z" id="Fill-32" fill="#FFFFFF" mask="url(#mask-2)"></path>
                <polygon id="Fill-33" fill="#FFFFFF" mask="url(#mask-2)" points="389.489492 119.094609 392.759749 119.094609 392.759749 90.6609868 389.489492 90.6609868"></polygon>
                <path d="M403.168385,101.8159 C403.168385,100.929296 403.168385,99.8438057 401.67492,99.8438057 C400.020583,99.8438057 400.020583,101.171315 400.020583,102.17773 L400.020583,106.325598 L403.168385,106.325598 L403.168385,101.8159 Z M396.834364,103.426164 C396.834364,101.897372 396.834364,100.728013 397.237743,99.8030698 C397.88123,98.0705981 399.658021,97.1839943 401.67492,97.1839943 C406.438642,97.1839943 406.438642,101.051504 406.438642,102.017183 L406.438642,109.023749 L400.020583,109.023749 L400.020583,115.064636 C400.020583,115.670881 400.020583,116.837843 401.554866,116.837843 C403.127567,116.837843 403.168385,115.507938 403.168385,114.865749 L403.168385,111.077315 L406.438642,111.077315 L406.438642,114.139692 C406.438642,115.428862 406.438642,119.454523 401.514048,119.454523 C400.827342,119.454523 400.181455,119.375447 399.576385,119.174164 C396.834364,118.28756 396.834364,115.95124 396.834364,114.98556 L396.834364,103.426164 Z" id="Fill-34" fill="#FFFFFF" mask="url(#mask-2)"></path>
                <path d="M414.143674,92.9158358 L414.143674,97.5884774 L415.999701,97.5884774 L415.999701,100.245892 L414.143674,100.245892 L414.143674,115.148025 C414.143674,116.595345 414.62869,116.755892 416.242209,116.676817 L416.242209,119.132949 C415.675556,119.214421 415.111305,119.334232 414.386182,119.334232 C411.115925,119.334232 410.873417,118.085798 410.873417,115.790213 L410.873417,100.245892 L408.938155,100.245892 L408.938155,97.5884774 L410.914235,97.5884774 L410.914235,92.9158358 L414.143674,92.9158358 Z" id="Fill-35" fill="#FFFFFF" mask="url(#mask-2)"></path>
                <path d="M421.125984,108.420858 C418.866578,106.084538 418.261508,104.917575 418.261508,102.540519 C418.261508,99.6003491 419.512465,97.2256887 423.063647,97.2256887 C427.541642,97.2256887 427.58246,100.688236 427.623278,103.990236 L424.595529,103.990236 C424.595529,101.292085 424.39384,100.206594 422.859556,100.206594 C421.327674,100.206594 421.286856,101.57484 421.286856,102.26016 C421.286856,103.506198 421.570182,104.272991 423.022829,105.681972 L424.516294,107.131689 C426.209048,108.782689 427.78415,110.395349 427.78415,113.654217 C427.78415,117.723009 425.565561,119.496217 422.780321,119.496217 C421.044348,119.496217 419.109086,118.851632 418.340743,116.678255 C417.937364,115.549632 417.937364,114.7445 417.937364,111.159745 L421.003529,111.159745 C421.003529,113.977708 421.003529,114.703764 421.125984,115.307613 C421.447727,116.515311 422.21607,116.637519 422.859556,116.637519 C424.595529,116.637519 424.595529,114.943387 424.595529,113.857896 C424.595529,112.650198 424.434658,111.763594 422.859556,110.150934 L421.125984,108.420858 Z" id="Fill-36" fill="#FFFFFF" mask="url(#mask-2)"></path>
            </g>
        </g>
    </g>
</svg>